<svg viewBox="0 0 512 512" xmlns="http://www.w3.org/2000/svg">
  <!-- Background -->
  <rect width="512" height="512" fill="#FFF5E6"/>
  
  <!-- Hair back -->
  <ellipse cx="256" cy="260" rx="155" ry="180" fill="#8B3A1A"/>
  
  <!-- Long hair strands falling down -->
  <path d="M101 260 C95 320, 90 380, 105 460 L140 460 C130 380, 125 320, 130 260 Z" fill="#8B3A1A"/>
  <path d="M411 260 C417 320, 422 380, 407 460 L372 460 C382 380, 387 320, 382 260 Z" fill="#8B3A1A"/>
  <path d="M120 280 C110 340, 108 400, 120 460 L155 460 C145 400, 140 340, 145 280 Z" fill="#7A3218"/>
  <path d="M392 280 C402 340, 404 400, 392 460 L357 460 C367 400, 372 340, 367 280 Z" fill="#7A3218"/>
  
  <!-- Neck -->
  <rect x="226" y="370" width="60" height="60" fill="#FDDCB5"/>
  <path d="M226 370 Q256 390, 286 370 L286 430 L226 430 Z" fill="#FDDCB5"/>
  
  <!-- Shoulders -->
  <path d="M180 430 Q256 415, 332 430 Q340 470, 350 512 L162 512 Q170 470, 180 430 Z" fill="#E85D4A"/>
  
  <!-- Collar detail -->
  <path d="M226 430 Q256 450, 286 430" fill="none" stroke="#C94535" stroke-width="2"/>
  
  <!-- Face shape -->
  <ellipse cx="256" cy="265" rx="120" ry="135" fill="#FDDCB5"/>
  
  <!-- Ears -->
  <ellipse cx="136" cy="275" rx="18" ry="25" fill="#FDDCB5"/>
  <ellipse cx="136" cy="275" rx="10" ry="15" fill="#F5C9A0"/>
  <ellipse cx="376" cy="275" rx="18" ry="25" fill="#FDDCB5"/>
  <ellipse cx="376" cy="275" rx="10" ry="15" fill="#F5C9A0"/>
  
  <!-- Freckles -->
  <circle cx="215" cy="290" r="3" fill="#D4A574" opacity="0.6"/>
  <circle cx="225" cy="295" r="2.5" fill="#D4A574" opacity="0.5"/>
  <circle cx="208" cy="298" r="2" fill="#D4A574" opacity="0.5"/>
  <circle cx="220" cy="285" r="2" fill="#D4A574" opacity="0.4"/>
  <circle cx="297" cy="290" r="3" fill="#D4A574" opacity="0.6"/>
  <circle cx="287" cy="295" r="2.5" fill="#D4A574" opacity="0.5"/>
  <circle cx="304" cy="298" r="2" fill="#D4A574" opacity="0.5"/>
  <circle cx="292" cy="285" r="2" fill="#D4A574" opacity="0.4"/>
  
  <!-- Eyebrows -->
  <path d="M195 210 Q220 198, 245 205" fill="none" stroke="#5C2810" stroke-width="5" stroke-linecap="round"/>
  <path d="M267 205 Q292 198, 317 210" fill="none" stroke="#5C2810" stroke-width="5" stroke-linecap="round"/>
  
  <!-- Eyes - whites -->
  <ellipse cx="220" cy="250" rx="28" ry="26" fill="white"/>
  <ellipse cx="292" cy="250" rx="28" ry="26" fill="white"/>
  
  <!-- Eyes - iris -->
  <ellipse cx="222" cy="253" rx="16" ry="18" fill="#4A8B5C"/>
  <ellipse cx="294" cy="253" rx="16" ry="18" fill="#4A8B5C"/>
  
  <!-- Eyes - pupils -->
  <circle cx="224" cy="253" r="8" fill="#1A1A1A"/>
  <circle cx="296" cy="253" r="8" fill="#1A1A1A"/>
  
  <!-- Eye highlights -->
  <circle cx="228" cy="246" r="4" fill="white"/>
  <circle cx="300" cy="246" r="4" fill="white"/>
  <circle cx="220" cy="258" r="2" fill="white" opacity="0.6"/>
  <circle cx="292" cy="258" r="2" fill="white" opacity="0.6"/>
  
  <!-- Eyelashes top -->
  <path d="M192 240 Q220 228, 248 240" fill="none" stroke="#3D1A0A" stroke-width="3" stroke-linecap="round"/>
  <path d="M264 240 Q292 228, 320 240" fill="none" stroke="#3D1A0A" stroke-width="3" stroke-linecap="round"/>
  
  <!-- Nose -->
  <path d="M252 290 Q256 300, 260 290" fill="none" stroke="#E8A882" stroke-width="3" stroke-linecap="round"/>
  
  <!-- Mouth - CH viseme: rounded, slightly open, lips pushed forward -->
  <ellipse cx="256" cy="335" rx="18" ry="14" fill="#2D0A0A"/>
  <!-- Upper lip -->
  <path d="M238 332 Q244 325, 256 324 Q268 325, 274 332 Q268 330, 256 329 Q244 330, 238 332 Z" fill="#E0696A"/>
  <!-- Lower lip -->
  <path d="M238 338 Q244 350, 256 352 Q268 350, 274 338 Q268 342, 256 343 Q244 342, 238 338 Z" fill="#E8787A"/>
  <!-- Tongue hint -->
  <ellipse cx="256" cy="342" rx="10" ry="6" fill="#C44040" opacity="0.6"/>
  <!-- Lip outline for rounded shape -->
  <path d="M236 335 Q236 320, 256 318 Q276 320, 276 335 Q276 352, 256 355 Q236 352, 236 335 Z" fill="none" stroke="#C44040" stroke-width="2.5"/>
  
  <!-- Hair front -->
  <path d="M140 200 Q150 130, 220 110 Q256 100, 292 110 Q362 130, 372 200 Q370 180, 340 160 Q300 135, 256 132 Q212 135, 172 160 Q145 180, 140 200 Z" fill="#8B3A1A"/>
  
  <!-- Hair bangs/fringe -->
  <path d="M155 220 Q160 160, 200 140 Q180 170, 175 220 Z" fill="#7A3218"/>
  <path d="M175 200 Q185 145, 230 125 Q210 155, 200 200 Z" fill="#8B3A1A"/>
  <path d="M210 190 Q225 135, 270 120 Q250 145, 240 190 Z" fill="#7A3218"/>
  <path d="M250 185 Q268 130, 310 125 Q290 150, 278 185 Z" fill="#8B3A1A"/>
  <path d="M300 195 Q320 145, 355 150 Q335 165, 320 200 Z" fill="#7A3218"/>
  
  <!-- Blush -->
  <ellipse cx="195" cy="300" rx="20" ry="12" fill="#FFB5A0" opacity="0.3"/>
  <ellipse cx="317" cy="300" rx="20" ry="12" fill="#FFB5A0" opacity="0.3"/>
</svg>