<svg viewBox="0 0 512 512" xmlns="http://www.w3.org/2000/svg">
  <!-- Background -->
  <rect width="512" height="512" fill="#FFF5E6"/>
  
  <!-- Hair back -->
  <ellipse cx="256" cy="260" rx="155" ry="180" fill="#8B3A1A"/>
  
  <!-- Long hair strands falling down -->
  <path d="M101 260 C95 320, 90 380, 105 460 L140 460 C130 380, 125 320, 130 260 Z" fill="#8B3A1A"/>
  <path d="M411 260 C417 320, 422 380, 407 460 L372 460 C382 380, 387 320, 382 260 Z" fill="#8B3A1A"/>
  <path d="M120 280 C110 340, 108 400, 120 460 L155 460 C145 400, 140 340, 145 280 Z" fill="#7A3218"/>
  <path d="M392 280 C402 340, 404 400, 392 460 L357 460 C367 400, 372 340, 367 280 Z" fill="#7A3218"/>
  
  <!-- Neck -->
  <rect x="226" y="370" width="60" height="60" fill="#FDDCB5"/>
  <path d="M226 370 Q256 390, 286 370 L286 430 L226 430 Z" fill="#FDDCB5"/>
  
  <!-- Shoulders -->
  <path d="M180 430 Q256 415, 332 430 Q340 470, 350 512 L162 512 Q170 470, 180 430 Z" fill="#E85D4A"/>
  
  <!-- Collar detail -->
  <path d="M226 430 Q256 450, 286 430" fill="none" stroke="#C94535" stroke-width="2"/>
  
  <!-- Face shape -->
  <ellipse cx="256" cy="265" rx="120" ry="135" fill="#FDDCB5"/>
  
  <!-- Ears -->
  <ellipse cx="136" cy="275" rx="18" ry="25" fill="#FDDCB5"/>
  <ellipse cx="136" cy="275" rx="10" ry="15" fill="#F5C9A0"/>
  <ellipse cx="376" cy="275" rx="18" ry="25" fill="#FDDCB5"/>
  <ellipse cx="376" cy="275" rx="10" ry="15" fill="#F5C9A0"/>
  
  <!-- Freckles -->
  <circle cx="215" cy="290" r="3" fill="#D4A574" opacity="0.6"/>
  <circle cx="225" cy="295" r="2.5" fill="#D4A574" opacity="0.5"/>
  <circle cx="208" cy="298" r="2" fill="#D4A574" opacity="0.5"/>
  <circle cx="220" cy="285" r="2" fill="#D4A574" opacity="0.4"/>
  <circle cx="297" cy="290" r="3" fill="#D4A574" opacity="0.6"/>
  <circle cx="287" cy="295" r="2.5" fill="#D4A574" opacity="0.5"/>
  <circle cx="304" cy="298" r="2" fill="#D4A574" opacity="0.5"/>
  <circle cx="292" cy="285" r="2" fill="#D4A574" opacity="0.4"/>
  
  <!-- Eyebrows -->
  <path d="M195 210 Q220 198, 245 205" fill="none" stroke="#5C2810" stroke-width="5" stroke-linecap="round"/>
  <path d="M267 205 Q292 198, 317 210" fill="none" stroke="#5C2810" stroke-width="5" stroke-linecap="round"/>
  
  <!-- Eyes - whites -->
  <ellipse cx="220" cy="250" rx="28" ry="26" fill="white"/>
  <ellipse cx="292" cy="250" rx="28" ry="26" fill="white"/>
  
  <!-- Eyes - iris -->
  <ellipse cx="222" cy="253" rx="16" ry="18" fill="#4A8B5C"/>
  <ellipse cx="294" cy="253" rx="16" ry="18" fill="#4A8B5C"/>
  
  <!-- Eyes - pupils -->
  <circle cx="224" cy="253" r="8" fill="#1A1A1A"/>
  <circle cx="296" cy="253" r="8" fill="#1A1A1A"/>
  
  <!-- Eye highlights -->
  <circle cx="228" cy="246" r="4" fill="white"/>
  <circle cx="300" cy="246" r="4" fill="white"/>
  <circle cx="220" cy="258" r="2" fill="white" opacity="0.6"/>
  <circle cx="292" cy="258" r="2" fill="white" opacity="0.6"/>
  
  <!-- Eyelashes -->
  <path d="M192 240 Q190 235, 188 232" fill="none" stroke="#3A1A0A" stroke-width="2" stroke-linecap="round"/>
  <path d="M248 240 Q250 235, 252 232" fill="none" stroke="#3A1A0A" stroke-width="2" stroke-linecap="round"/>
  <path d="M264 240 Q262 235, 260 232" fill="none" stroke="#3A1A0A" stroke-width="2" stroke-linecap="round"/>
  <path d="M320 240 Q322 235, 324 232" fill="none" stroke="#3A1A0A" stroke-width="2" stroke-linecap="round"/>
  
  <!-- Nose -->
  <path d="M252 290 Q256 300, 260 290" fill="none" stroke="#E8B090" stroke-width="3" stroke-linecap="round"/>
  
  <!-- Mouth - "kk" viseme: mouth open, back of tongue raised, mid-open -->
  <!-- Outer mouth opening -->
  <ellipse cx="256" cy="340" rx="25" ry="18" fill="#2A0A0A"/>
  <!-- Upper lip -->
  <path d="M231 335 Q243 328, 256 330 Q269 328, 281 335" fill="#E07060" stroke="none"/>
  <!-- Lower lip -->
  <path d="M231 345 Q243 358, 256 360 Q269 358, 281 345" fill="#D45A4A" stroke="none"/>
  <!-- Mouth interior - dark cavity -->
  <ellipse cx="256" cy="340" rx="22" ry="14" fill="#3D0D0D"/>
  <!-- Tongue raised at back - visible bump at back of mouth -->
  <path d="M238 346 Q248 344, 256 343 Q264 344, 270 346 Q272 352, 268 354 Q260 350, 256 348 Q252 350, 244 354 Q240 352, 238 346 Z" fill="#D4565A"/>
  <!-- Tongue back raised portion -->
  <path d="M262 338 Q268 334, 272 337 Q270 342, 266 344 Q262 342, 262 338 Z" fill="#C94848"/>
  <!-- Upper teeth hint -->
  <path d="M240 332 L272 332 L272 338 Q256 340, 240 338 Z" fill="white" opacity="0.85"/>
  
  <!-- Hair front -->
  <path d="M140 200 Q160 130, 220 120 Q256 110, 292 120 Q352 130, 372 200 Q360 170, 320 155 Q280 140, 256 142 Q232 140, 192 155 Q152 170, 140 200 Z" fill="#8B3A1A"/>
  
  <!-- Hair bangs/fringe -->
  <path d="M155 210 Q170 155, 210 140 Q195 170, 190 210 Z" fill="#7A3218"/>
  <path d="M180 195 Q200 145, 240 135 Q220 160, 215 200 Z" fill="#8B3A1A"/>
  <path d="M210 190 Q235 135, 270 132 Q250 155, 245 195 Z" fill="#7A3218"/>
  <path d="M250 188 Q275 133, 310 138 Q285 155, 278 192 Z" fill="#8B3A1A"/>
  <path d="M300 195 Q325 150, 355 160 Q335 175, 325 205 Z" fill="#7A3218"/>
  
  <!-- Blush -->
  <ellipse cx="200" cy="305" rx="18" ry="10" fill="#F5A0A0" opacity="0.3"/>
  <ellipse cx="312" cy="305" rx="18" ry="10" fill="#F5A0A0" opacity="0.3"/>
</svg>