<svg viewBox="0 0 512 512" xmlns="http://www.w3.org/2000/svg">
  <!-- Background -->
  <rect width="512" height="512" fill="#FFF5E6"/>
  
  <!-- Hair back -->
  <ellipse cx="256" cy="260" rx="155" ry="180" fill="#8B3A1A"/>
  
  <!-- Long hair strands falling down -->
  <path d="M101 260 C95 320, 90 380, 105 460 L140 460 C130 380, 125 320, 130 260 Z" fill="#8B3A1A"/>
  <path d="M411 260 C417 320, 422 380, 407 460 L372 460 C382 380, 387 320, 382 260 Z" fill="#8B3A1A"/>
  <path d="M120 280 C110 340, 108 400, 120 460 L155 460 C145 400, 140 340, 145 280 Z" fill="#7A3218"/>
  <path d="M392 280 C402 340, 404 400, 392 460 L357 460 C367 400, 372 340, 367 280 Z" fill="#7A3218"/>
  
  <!-- Neck -->
  <rect x="226" y="370" width="60" height="60" fill="#FDDCB5"/>
  <path d="M226 370 Q256 390, 286 370 L286 430 L226 430 Z" fill="#FDDCB5"/>
  
  <!-- Shoulders -->
  <path d="M180 430 Q256 410, 332 430 L350 512 L162 512 Z" fill="#E85D4A"/>
  <path d="M180 430 Q256 415, 332 430 Q340 470, 350 512 L162 512 Q170 470, 180 430 Z" fill="#E85D4A"/>
  
  <!-- Collar detail -->
  <path d="M226 430 Q256 450, 286 430" fill="none" stroke="#C94535" stroke-width="2"/>
  
  <!-- Face shape -->
  <ellipse cx="256" cy="265" rx="120" ry="135" fill="#FDDCB5"/>
  
  <!-- Ears -->
  <ellipse cx="136" cy="275" rx="18" ry="25" fill="#FDDCB5"/>
  <ellipse cx="136" cy="275" rx="10" ry="15" fill="#F5C9A0"/>
  <ellipse cx="376" cy="275" rx="18" ry="25" fill="#FDDCB5"/>
  <ellipse cx="376" cy="275" rx="10" ry="15" fill="#F5C9A0"/>
  
  <!-- Freckles -->
  <circle cx="215" cy="290" r="3" fill="#D4A574" opacity="0.6"/>
  <circle cx="225" cy="295" r="2.5" fill="#D4A574" opacity="0.5"/>
  <circle cx="208" cy="298" r="2" fill="#D4A574" opacity="0.5"/>
  <circle cx="220" cy="285" r="2" fill="#D4A574" opacity="0.4"/>
  <circle cx="297" cy="290" r="3" fill="#D4A574" opacity="0.6"/>
  <circle cx="287" cy="295" r="2.5" fill="#D4A574" opacity="0.5"/>
  <circle cx="304" cy="298" r="2" fill="#D4A574" opacity="0.5"/>
  <circle cx="292" cy="285" r="2" fill="#D4A574" opacity="0.4"/>
  
  <!-- Eyebrows -->
  <path d="M195 210 Q220 198, 245 205" fill="none" stroke="#5C2810" stroke-width="5" stroke-linecap="round"/>
  <path d="M267 205 Q292 198, 317 210" fill="none" stroke="#5C2810" stroke-width="5" stroke-linecap="round"/>
  
  <!-- Eyes - whites -->
  <ellipse cx="220" cy="250" rx="28" ry="26" fill="white"/>
  <ellipse cx="292" cy="250" rx="28" ry="26" fill="white"/>
  
  <!-- Eyes - iris -->
  <ellipse cx="222" cy="253" rx="16" ry="18" fill="#4A8B5C"/>
  <ellipse cx="294" cy="253" rx="16" ry="18" fill="#4A8B5C"/>
  
  <!-- Eyes - pupils -->
  <circle cx="224" cy="253" r="8" fill="#1A1A1A"/>
  <circle cx="296" cy="253" r="8" fill="#1A1A1A"/>
  
  <!-- Eye highlights -->
  <circle cx="228" cy="246" r="4" fill="white"/>
  <circle cx="300" cy="246" r="4" fill="white"/>
  <circle cx="220" cy="258" r="2" fill="white" opacity="0.6"/>
  <circle cx="292" cy="258" r="2" fill="white" opacity="0.6"/>
  
  <!-- Eyelashes/upper lids -->
  <path d="M192 245 Q220 232, 248 245" fill="none" stroke="#3D1E0E" stroke-width="3.5" stroke-linecap="round"/>
  <path d="M264 245 Q292 232, 320 245" fill="none" stroke="#3D1E0E" stroke-width="3.5" stroke-linecap="round"/>
  
  <!-- Nose -->
  <path d="M256 270 Q250 295, 248 305 Q256 310, 264 305 Q262 295, 256 270" fill="none" stroke="#E8A882" stroke-width="2.5" stroke-linecap="round"/>
  
  <!-- Mouth - sil (closed, neutral, relaxed) -->
  <path d="M232 340 Q244 344, 256 345 Q268 344, 280 340" fill="none" stroke="#C4605A" stroke-width="4" stroke-linecap="round"/>
  
  <!-- Subtle lip color -->
  <path d="M235 339 Q256 347, 277 339 Q256 343, 235 339 Z" fill="#D4706A" opacity="0.4"/>
  
  <!-- Blush -->
  <ellipse cx="195" cy="305" rx="20" ry="12" fill="#F5A0A0" opacity="0.3"/>
  <ellipse cx="317" cy="305" rx="20" ry="12" fill="#F5A0A0" opacity="0.3"/>
  
  <!-- Hair front -->
  <path d="M140 200 Q160 130, 256 120 Q352 130, 372 200 Q370 170, 350 150 Q310 110, 256 105 Q202 110, 162 150 Q142 170, 140 200 Z" fill="#8B3A1A"/>
  
  <!-- Hair bangs/fringe -->
  <path d="M155 210 Q170 155, 210 140 Q195 170, 190 210 Z" fill="#9B4422"/>
  <path d="M180 195 Q200 140, 240 130 Q220 160, 215 195 Z" fill="#8B3A1A"/>
  <path d="M210 185 Q235 125, 270 125 Q250 155, 245 185 Z" fill="#9B4422"/>
  <path d="M245 185 Q270 125, 310 135 Q285 155, 275 185 Z" fill="#8B3A1A"/>
  <path d="M290 195 Q320 145, 345 155 Q325 170, 315 200 Z" fill="#9B4422"/>
  <path d="M325 210 Q345 160, 360 170 Q350 185, 345 215 Z" fill="#8B3A1A"/>
  
  <!-- Hair highlight -->
  <path d="M200 145 Q230 130, 250 132" fill="none" stroke="#B5542E" stroke-width="3" opacity="0.4" stroke-linecap="round"/>
</svg>