<svg viewBox="0 0 512 512" xmlns="http://www.w3.org/2000/svg">
  <!-- Background -->
  <rect width="512" height="512" fill="#FFF5E6"/>
  
  <!-- Hair back -->
  <ellipse cx="256" cy="260" rx="155" ry="180" fill="#8B3A1A"/>
  
  <!-- Long hair strands falling down -->
  <path d="M101 260 C95 320, 90 380, 105 460 L140 460 C130 380, 125 320, 130 260 Z" fill="#8B3A1A"/>
  <path d="M411 260 C417 320, 422 380, 407 460 L372 460 C382 380, 387 320, 382 260 Z" fill="#8B3A1A"/>
  <path d="M120 280 C110 340, 108 400, 120 460 L155 460 C145 400, 140 340, 145 280 Z" fill="#7A3218"/>
  <path d="M392 280 C402 340, 404 400, 392 460 L357 460 C367 400, 372 340, 367 280 Z" fill="#7A3218"/>
  
  <!-- Neck -->
  <rect x="226" y="370" width="60" height="60" fill="#FDDCB5"/>
  <path d="M226 370 Q256 390, 286 370 L286 430 L226 430 Z" fill="#FDDCB5"/>
  
  <!-- Shoulders -->
  <path d="M180 430 Q256 415, 332 430 Q340 470, 350 512 L162 512 Q170 470, 180 430 Z" fill="#E85D4A"/>
  
  <!-- Collar detail -->
  <path d="M226 430 Q256 450, 286 430" fill="none" stroke="#C94535" stroke-width="2"/>
  
  <!-- Face shape -->
  <ellipse cx="256" cy="265" rx="120" ry="135" fill="#FDDCB5"/>
  
  <!-- Ears -->
  <ellipse cx="136" cy="275" rx="18" ry="25" fill="#FDDCB5"/>
  <ellipse cx="136" cy="275" rx="10" ry="15" fill="#F5C9A0"/>
  <ellipse cx="376" cy="275" rx="18" ry="25" fill="#FDDCB5"/>
  <ellipse cx="376" cy="275" rx="10" ry="15" fill="#F5C9A0"/>
  
  <!-- Freckles -->
  <circle cx="215" cy="290" r="3" fill="#D4A574" opacity="0.6"/>
  <circle cx="225" cy="295" r="2.5" fill="#D4A574" opacity="0.5"/>
  <circle cx="208" cy="298" r="2" fill="#D4A574" opacity="0.5"/>
  <circle cx="220" cy="285" r="2" fill="#D4A574" opacity="0.4"/>
  <circle cx="297" cy="290" r="3" fill="#D4A574" opacity="0.6"/>
  <circle cx="287" cy="295" r="2.5" fill="#D4A574" opacity="0.5"/>
  <circle cx="304" cy="298" r="2" fill="#D4A574" opacity="0.5"/>
  <circle cx="292" cy="285" r="2" fill="#D4A574" opacity="0.4"/>
  
  <!-- Eyebrows -->
  <path d="M195 210 Q220 198, 245 205" fill="none" stroke="#5C2810" stroke-width="5" stroke-linecap="round"/>
  <path d="M267 205 Q292 198, 317 210" fill="none" stroke="#5C2810" stroke-width="5" stroke-linecap="round"/>
  
  <!-- Eyes - whites -->
  <ellipse cx="220" cy="250" rx="28" ry="26" fill="white"/>
  <ellipse cx="292" cy="250" rx="28" ry="26" fill="white"/>
  
  <!-- Eyes - iris -->
  <ellipse cx="222" cy="253" rx="16" ry="18" fill="#4A8B5C"/>
  <ellipse cx="294" cy="253" rx="16" ry="18" fill="#4A8B5C"/>
  
  <!-- Eyes - pupils -->
  <circle cx="224" cy="253" r="8" fill="#1A1A1A"/>
  <circle cx="296" cy="253" r="8" fill="#1A1A1A"/>
  
  <!-- Eye highlights -->
  <circle cx="228" cy="246" r="4" fill="white"/>
  <circle cx="300" cy="246" r="4" fill="white"/>
  <circle cx="220" cy="258" r="2" fill="white" opacity="0.6"/>
  <circle cx="292" cy="258" r="2" fill="white" opacity="0.6"/>
  
  <!-- Eyelashes top -->
  <path d="M192 240 Q220 228, 248 240" fill="none" stroke="#3A1A0A" stroke-width="3" stroke-linecap="round"/>
  <path d="M264 240 Q292 228, 320 240" fill="none" stroke="#3A1A0A" stroke-width="3" stroke-linecap="round"/>
  
  <!-- Nose -->
  <path d="M252 290 Q256 298, 260 290" fill="none" stroke="#E8A880" stroke-width="3" stroke-linecap="round"/>
  
  <!-- Mouth - SS viseme: wide, slightly parted, teeth nearly closed -->
  <!-- Outer lips - wide stretched shape -->
  <path d="M222 335 Q240 330, 256 332 Q272 330, 290 335 Q280 345, 256 347 Q232 345, 222 335 Z" fill="#C94535"/>
  <!-- Upper lip line -->
  <path d="M225 336 Q256 333, 287 336" fill="none" stroke="#A33828" stroke-width="1.5"/>
  <!-- Teeth visible in gap -->
  <rect x="232" y="335" width="48" height="7" rx="2" fill="white"/>
  <!-- Teeth line separating upper/lower -->
  <line x1="232" y1="339" x2="280" y2="339" stroke="#E0E0E0" stroke-width="0.8"/>
  <!-- Lower lip hint -->
  <path d="M230 342 Q256 348, 282 342" fill="none" stroke="#B8402F" stroke-width="1.5"/>
  <!-- Lip corners -->
  <circle cx="222" cy="335" r="1.5" fill="#A33828"/>
  <circle cx="290" cy="335" r="1.5" fill="#A33828"/>
  
  <!-- Blush -->
  <ellipse cx="190" cy="300" rx="18" ry="12" fill="#F4A0A0" opacity="0.3"/>
  <ellipse cx="322" cy="300" rx="18" ry="12" fill="#F4A0A0" opacity="0.3"/>
  
  <!-- Hair front/bangs -->
  <path d="M140 200 Q160 130, 220 120 Q256 110, 292 120 Q352 130, 372 200 Q360 170, 320 155 Q280 140, 256 142 Q232 140, 192 155 Q152 170, 140 200 Z" fill="#8B3A1A"/>
  <!-- Side hair overlapping face -->
  <path d="M136 230 Q130 200, 145 170 Q160 150, 175 160 Q155 180, 150 220 Q148 250, 150 270 Z" fill="#7A3218"/>
  <path d="M376 230 Q382 200, 367 170 Q352 150, 337 160 Q357 180, 362 220 Q364 250, 362 270 Z" fill="#7A3218"/>
  <!-- Bangs detail -->
  <path d="M180 180 Q200 140, 240 135 Q220 155, 200 185 Z" fill="#7A3218" opacity="0.6"/>
  <path d="M332 180 Q312 140, 272 135 Q292 155, 312 185 Z" fill="#7A3218" opacity="0.6"/>
</svg>