<svg viewBox="0 0 512 512" xmlns="http://www.w3.org/2000/svg">
  <!-- Background -->
  <rect width="512" height="512" fill="#FFF5E6"/>
  
  <!-- Hair back -->
  <ellipse cx="256" cy="260" rx="155" ry="180" fill="#8B3A1A"/>
  
  <!-- Long hair strands falling down -->
  <path d="M101 260 C95 320, 90 380, 105 460 L140 460 C130 380, 125 320, 130 260 Z" fill="#8B3A1A"/>
  <path d="M411 260 C417 320, 422 380, 407 460 L372 460 C382 380, 387 320, 382 260 Z" fill="#8B3A1A"/>
  <path d="M120 280 C110 340, 108 400, 120 460 L155 460 C145 400, 140 340, 145 280 Z" fill="#7A3218"/>
  <path d="M392 280 C402 340, 404 400, 392 460 L357 460 C367 400, 372 340, 367 280 Z" fill="#7A3218"/>
  
  <!-- Neck -->
  <rect x="226" y="370" width="60" height="60" fill="#FDDCB5"/>
  <path d="M226 370 Q256 390, 286 370 L286 430 L226 430 Z" fill="#FDDCB5"/>
  
  <!-- Shoulders -->
  <path d="M180 430 Q256 415, 332 430 Q340 470, 350 512 L162 512 Q170 470, 180 430 Z" fill="#E85D4A"/>
  
  <!-- Collar detail -->
  <path d="M226 430 Q256 450, 286 430" fill="none" stroke="#C94535" stroke-width="2"/>
  
  <!-- Face shape -->
  <ellipse cx="256" cy="265" rx="120" ry="135" fill="#FDDCB5"/>
  
  <!-- Ears -->
  <ellipse cx="136" cy="275" rx="18" ry="25" fill="#FDDCB5"/>
  <ellipse cx="136" cy="275" rx="10" ry="15" fill="#F5C9A0"/>
  <ellipse cx="376" cy="275" rx="18" ry="25" fill="#FDDCB5"/>
  <ellipse cx="376" cy="275" rx="10" ry="15" fill="#F5C9A0"/>
  
  <!-- Freckles -->
  <circle cx="215" cy="290" r="3" fill="#D4A574" opacity="0.6"/>
  <circle cx="225" cy="295" r="2.5" fill="#D4A574" opacity="0.5"/>
  <circle cx="208" cy="298" r="2" fill="#D4A574" opacity="0.5"/>
  <circle cx="220" cy="285" r="2" fill="#D4A574" opacity="0.4"/>
  <circle cx="297" cy="290" r="3" fill="#D4A574" opacity="0.6"/>
  <circle cx="287" cy="295" r="2.5" fill="#D4A574" opacity="0.5"/>
  <circle cx="304" cy="298" r="2" fill="#D4A574" opacity="0.5"/>
  <circle cx="292" cy="285" r="2" fill="#D4A574" opacity="0.4"/>
  
  <!-- Eyebrows -->
  <path d="M195 210 Q220 198, 245 205" fill="none" stroke="#5C2810" stroke-width="5" stroke-linecap="round"/>
  <path d="M267 205 Q292 198, 317 210" fill="none" stroke="#5C2810" stroke-width="5" stroke-linecap="round"/>
  
  <!-- Eyes - whites -->
  <ellipse cx="220" cy="250" rx="28" ry="26" fill="white"/>
  <ellipse cx="292" cy="250" rx="28" ry="26" fill="white"/>
  
  <!-- Eyes - iris -->
  <ellipse cx="222" cy="253" rx="16" ry="18" fill="#4A8B5C"/>
  <ellipse cx="294" cy="253" rx="16" ry="18" fill="#4A8B5C"/>
  
  <!-- Eyes - pupils -->
  <circle cx="224" cy="253" r="8" fill="#1A1A1A"/>
  <circle cx="296" cy="253" r="8" fill="#1A1A1A"/>
  
  <!-- Eye highlights -->
  <circle cx="228" cy="246" r="4" fill="white"/>
  <circle cx="300" cy="246" r="4" fill="white"/>
  <circle cx="220" cy="258" r="2" fill="white" opacity="0.6"/>
  <circle cx="292" cy="258" r="2" fill="white" opacity="0.6"/>
  
  <!-- Eyelashes -->
  <path d="M192 242 Q194 237, 198 235" fill="none" stroke="#3A1A0A" stroke-width="2" stroke-linecap="round"/>
  <path d="M320 242 Q318 237, 314 235" fill="none" stroke="#3A1A0A" stroke-width="2" stroke-linecap="round"/>
  
  <!-- Nose -->
  <path d="M252 290 Q256 298, 260 290" fill="none" stroke="#E8A880" stroke-width="3" stroke-linecap="round"/>
  
  <!-- Mouth - TH viseme: slightly parted lips with tongue tip visible -->
  <!-- Upper lip -->
  <path d="M230 335 Q243 330, 256 332 Q269 330, 282 335" fill="#E85A5A" stroke="#C94040" stroke-width="1.5"/>
  <!-- Lower lip -->
  <path d="M230 335 Q243 348, 256 350 Q269 348, 282 335" fill="#E85A5A" stroke="#C94040" stroke-width="1.5"/>
  <!-- Mouth opening / dark interior -->
  <path d="M234 335 Q256 333, 278 335 Q269 342, 256 343 Q243 342, 234 335 Z" fill="#3A1010"/>
  <!-- Upper teeth -->
  <path d="M237 335 Q256 334, 275 335 L275 340 Q256 339, 237 340 Z" fill="white"/>
  <!-- Tooth line details -->
  <line x1="249" y1="335" x2="249" y2="340" stroke="#E0E0E0" stroke-width="0.5"/>
  <line x1="256" y1="334.5" x2="256" y2="339.5" stroke="#E0E0E0" stroke-width="0.5"/>
  <line x1="263" y1="335" x2="263" y2="340" stroke="#E0E0E0" stroke-width="0.5"/>
  <!-- Tongue tip visible between teeth -->
  <path d="M246 340 Q256 345, 266 340 Q256 342, 246 340 Z" fill="#E06060"/>
  <ellipse cx="256" cy="341" rx="10" ry="3" fill="#E06060"/>
  
  <!-- Hair front/bangs -->
  <path d="M145 200 Q160 140, 200 120 Q240 105, 256 108 Q272 105, 312 120 Q352 140, 367 200 Q350 170, 320 155 Q290 142, 256 140 Q222 142, 192 155 Q162 170, 145 200 Z" fill="#8B3A1A"/>
  <path d="M150 210 Q170 160, 210 140 Q230 132, 245 135 L235 180 Q200 165, 170 200 Z" fill="#7A3218"/>
  <path d="M362 210 Q342 160, 302 140 Q282 132, 267 135 L277 180 Q312 165, 342 200 Z" fill="#7A3218"/>
  
  <!-- Blush -->
  <ellipse cx="200" cy="305" rx="18" ry="10" fill="#F5A0A0" opacity="0.3"/>
  <ellipse cx="312" cy="305" rx="18" ry="10" fill="#F5A0A0" opacity="0.3"/>
</svg>