<svg xmlns="http://www.w3.org/2000/svg" viewBox="0 0 512 512">
  <!-- Background -->
  <rect width="512" height="512" fill="#E8F0FE" rx="20"/>
  
  <!-- Neck -->
  <rect x="218" y="360" width="76" height="60" rx="8" fill="#8B6B4E"/>
  
  <!-- Shoulders -->
  <path d="M120 440 Q140 390 256 400 Q372 390 392 440 L400 512 L112 512 Z" fill="#3A5BA0"/>
  
  <!-- Collar -->
  <path d="M200 400 Q256 430 312 400 Q290 420 256 415 Q222 420 200 400Z" fill="#2E4A80"/>
  
  <!-- Ears -->
  <ellipse cx="112" cy="250" rx="28" ry="35" fill="#8B6B4E"/>
  <ellipse cx="112" cy="250" rx="16" ry="22" fill="#7A5C40"/>
  <ellipse cx="400" cy="250" rx="28" ry="35" fill="#8B6B4E"/>
  <ellipse cx="400" cy="250" rx="16" ry="22" fill="#7A5C40"/>
  
  <!-- Head shape -->
  <ellipse cx="256" cy="235" rx="140" ry="165" fill="#9B7B5E"/>
  
  <!-- Hair - slightly receding, salt and pepper -->
  <path d="M116 210 Q120 100 200 65 Q256 45 312 65 Q392 100 396 210 Q380 160 340 130 Q300 108 256 105 Q212 108 172 130 Q132 160 116 210Z" fill="#3D3530"/>
  <!-- Gray streaks in hair -->
  <path d="M160 170 Q180 130 220 115 Q200 140 185 170Z" fill="#8A8480" opacity="0.6"/>
  <path d="M340 155 Q330 125 300 110 Q320 130 330 155Z" fill="#8A8480" opacity="0.6"/>
  <path d="M256 105 Q270 100 285 108 Q270 112 256 110Z" fill="#8A8480" opacity="0.5"/>
  
  <!-- Slight temple graying -->
  <path d="M125 200 Q130 170 150 150 Q135 175 130 200Z" fill="#9A9590" opacity="0.5"/>
  <path d="M387 200 Q382 170 362 150 Q377 175 382 200Z" fill="#9A9590" opacity="0.5"/>
  
  <!-- Eyebrows -->
  <path d="M170 185 Q195 170 230 178" stroke="#3D3530" stroke-width="5" fill="none" stroke-linecap="round"/>
  <path d="M282 178 Q317 170 342 185" stroke="#3D3530" stroke-width="5" fill="none" stroke-linecap="round"/>
  
  <!-- Eye whites -->
  <ellipse cx="200" cy="225" rx="32" ry="24" fill="white"/>
  <ellipse cx="312" cy="225" rx="32" ry="24" fill="white"/>
  
  <!-- Irises -->
  <ellipse cx="204" cy="227" rx="16" ry="18" fill="#4A3520"/>
  <ellipse cx="316" cy="227" rx="16" ry="18" fill="#4A3520"/>
  
  <!-- Pupils -->
  <circle cx="206" cy="225" r="7" fill="#1A1008"/>
  <circle cx="318" cy="225" r="7" fill="#1A1008"/>
  
  <!-- Eye highlights -->
  <circle cx="210" cy="220" r="4" fill="white" opacity="0.9"/>
  <circle cx="322" cy="220" r="4" fill="white" opacity="0.9"/>
  <circle cx="200" cy="230" r="2" fill="white" opacity="0.5"/>
  <circle cx="312" cy="230" r="2" fill="white" opacity="0.5"/>
  
  <!-- Upper eyelids - slight crease -->
  <path d="M168 218 Q200 205 232 218" stroke="#7A5C40" stroke-width="2" fill="none"/>
  <path d="M280 218 Q312 205 344 218" stroke="#7A5C40" stroke-width="2" fill="none"/>
  
  <!-- Nose -->
  <path d="M256 240 Q248 275 238 290 Q248 298 256 300 Q264 298 274 290 Q264 275 256 240" fill="#876550" opacity="0.7"/>
  <circle cx="242" cy="292" r="5" fill="#876550" opacity="0.4"/>
  <circle cx="270" cy="292" r="5" fill="#876550" opacity="0.4"/>
  
  <!-- Smile lines / nasolabial folds -->
  <path d="M218 290 Q212 315 215 340" stroke="#876550" stroke-width="2" fill="none" opacity="0.4"/>
  <path d="M294 290 Q300 315 297 340" stroke="#876550" stroke-width="2" fill="none" opacity="0.4"/>
  
  <!-- Stubble area -->
  <ellipse cx="256" cy="355" rx="70" ry="40" fill="#5A4A3E" opacity="0.12"/>
  <rect x="210" y="320" width="92" height="50" rx="20" fill="#5A4A3E" opacity="0.08"/>
  
  <!-- Stubble dots - salt and pepper -->
  <circle cx="220" cy="340" r="1.2" fill="#3D3530" opacity="0.4"/>
  <circle cx="230" cy="348" r="1.2" fill="#8A8480" opacity="0.4"/>
  <circle cx="240" cy="338" r="1.2" fill="#3D3530" opacity="0.4"/>
  <circle cx="250" cy="352" r="1.2" fill="#8A8480" opacity="0.4"/>
  <circle cx="260" cy="342" r="1.2" fill="#3D3530" opacity="0.4"/>
  <circle cx="270" cy="350" r="1.2" fill="#3D3530" opacity="0.4"/>
  <circle cx="280" cy="338" r="1.2" fill="#8A8480" opacity="0.4"/>
  <circle cx="290" cy="345" r="1.2" fill="#3D3530" opacity="0.4"/>
  <circle cx="225" cy="355" r="1.2" fill="#8A8480" opacity="0.35"/>
  <circle cx="245" cy="360" r="1.2" fill="#3D3530" opacity="0.35"/>
  <circle cx="265" cy="358" r="1.2" fill="#8A8480" opacity="0.35"/>
  <circle cx="285" cy="352" r="1.2" fill="#3D3530" opacity="0.35"/>
  <circle cx="235" cy="330" r="1.2" fill="#3D3530" opacity="0.3"/>
  <circle cx="255" cy="328" r="1.2" fill="#8A8480" opacity="0.3"/>
  <circle cx="275" cy="332" r="1.2" fill="#3D3530" opacity="0.3"/>
  
  <!-- FF VISEME MOUTH - Upper teeth resting on lower lip -->
  <!-- Mouth opening / dark interior -->
  <path d="M222 330 Q240 326 256 326 Q272 326 290 330 Q285 342 256 345 Q227 342 222 330Z" fill="#2A1008"/>
  
  <!-- Upper lip - pulled slightly up to show teeth -->
  <path d="M218 328 Q230 320 256 318 Q282 320 294 328 Q282 326 256 325 Q230 326 218 328Z" fill="#8A6250" stroke="#7A5540" stroke-width="1"/>
  
  <!-- Upper teeth row - resting on lower lip -->
  <path d="M228 330 Q240 327 256 327 Q272 327 284 330 L284 340 Q272 338 256 337 Q240 338 228 340Z" fill="#F0EAE0" stroke="#D8D0C4" stroke-width="0.5"/>
  <!-- Tooth separations -->
  <line x1="242" y1="328" x2="242" y2="339" stroke="#D8D0C4" stroke-width="0.7"/>
  <line x1="256" y1="327" x2="256" y2="337" stroke="#D8D0C4" stroke-width="0.7"/>
  <line x1="270" y1="328" x2="270" y2="339" stroke="#D8D0C4" stroke-width="0.7"/>
  
  <!-- Lower lip - teeth resting on it, slightly compressed -->
  <path d="M224 340 Q240 338 256 337 Q272 338 288 340 Q282 354 256 356 Q230 354 224 340Z" fill="#9A6A55"/>
  <!-- Lower lip highlight -->
  <path d="M238 346 Q256 344 274 346 Q268 350 256 351 Q244 350 238 346Z" fill="#A87868" opacity="0.5"/>
  
  <!-- Slight shadow under lower lip -->
  <path d="M232 356 Q256 362 280 356 Q272 360 256 361 Q240 360 232 356Z" fill="#7A5C40" opacity="0.3"/>
</svg>