<svg xmlns="http://www.w3.org/2000/svg" viewBox="0 0 512 512">
  <!-- Background -->
  <rect width="512" height="512" fill="#E8F0FE" rx="20"/>
  
  <!-- Neck -->
  <rect x="218" y="360" width="76" height="60" rx="8" fill="#8B6B4E"/>
  
  <!-- Shoulders -->
  <path d="M120 440 Q140 390 256 400 Q372 390 392 440 L400 512 L112 512 Z" fill="#3A5BA0"/>
  
  <!-- Collar -->
  <path d="M200 400 Q256 430 312 400 Q290 420 256 415 Q222 420 200 400Z" fill="#2E4A80"/>
  
  <!-- Ears -->
  <ellipse cx="112" cy="250" rx="28" ry="35" fill="#8B6B4E"/>
  <ellipse cx="112" cy="250" rx="16" ry="22" fill="#7A5C40"/>
  <ellipse cx="400" cy="250" rx="28" ry="35" fill="#8B6B4E"/>
  <ellipse cx="400" cy="250" rx="16" ry="22" fill="#7A5C40"/>
  
  <!-- Head shape -->
  <ellipse cx="256" cy="235" rx="140" ry="165" fill="#9B7B5E"/>
  
  <!-- Hair - slightly receding, salt and pepper -->
  <path d="M116 210 Q120 100 200 65 Q256 45 312 65 Q392 100 396 210 Q380 160 340 130 Q300 108 256 105 Q212 108 172 130 Q132 160 116 210Z" fill="#3D3530"/>
  <!-- Gray streaks in hair -->
  <path d="M160 170 Q180 130 220 115 Q200 140 185 170Z" fill="#8A8480" opacity="0.6"/>
  <path d="M340 155 Q330 125 300 110 Q320 130 330 155Z" fill="#8A8480" opacity="0.6"/>
  <path d="M256 105 Q270 100 285 108 Q270 112 256 110Z" fill="#8A8480" opacity="0.5"/>
  
  <!-- Slight temple graying -->
  <path d="M125 200 Q130 170 150 150 Q135 175 130 200Z" fill="#9A9590" opacity="0.5"/>
  <path d="M387 200 Q382 170 362 150 Q377 175 382 200Z" fill="#9A9590" opacity="0.5"/>
  
  <!-- Eyebrows -->
  <path d="M170 185 Q195 170 230 178" stroke="#3D3530" stroke-width="5" fill="none" stroke-linecap="round"/>
  <path d="M282 178 Q317 170 342 185" stroke="#3D3530" stroke-width="5" fill="none" stroke-linecap="round"/>
  
  <!-- Eye whites -->
  <ellipse cx="200" cy="225" rx="32" ry="24" fill="white"/>
  <ellipse cx="312" cy="225" rx="32" ry="24" fill="white"/>
  
  <!-- Irises -->
  <ellipse cx="204" cy="227" rx="16" ry="18" fill="#4A3520"/>
  <ellipse cx="316" cy="227" rx="16" ry="18" fill="#4A3520"/>
  
  <!-- Pupils -->
  <circle cx="206" cy="225" r="7" fill="#1A1008"/>
  <circle cx="318" cy="225" r="7" fill="#1A1008"/>
  
  <!-- Eye highlights -->
  <circle cx="210" cy="220" r="4" fill="white" opacity="0.9"/>
  <circle cx="322" cy="220" r="4" fill="white" opacity="0.9"/>
  <circle cx="200" cy="230" r="2" fill="white" opacity="0.5"/>
  <circle cx="312" cy="230" r="2" fill="white" opacity="0.5"/>
  
  <!-- Upper eyelids - slight crease -->
  <path d="M168 218 Q200 205 232 218" stroke="#7A5C40" stroke-width="2" fill="none"/>
  <path d="M280 218 Q312 205 344 218" stroke="#7A5C40" stroke-width="2" fill="none"/>
  
  <!-- Nose -->
  <path d="M256 240 Q248 275 238 290 Q248 298 256 300 Q264 298 274 290 Q264 275 256 240" fill="#876550" opacity="0.7"/>
  <circle cx="242" cy="292" r="5" fill="#876550" opacity="0.4"/>
  <circle cx="270" cy="292" r="5" fill="#876550" opacity="0.4"/>
  
  <!-- Smile lines / nasolabial folds -->
  <path d="M218 290 Q212 310 215 335" stroke="#876550" stroke-width="2" fill="none" opacity="0.4" stroke-linecap="round"/>
  <path d="M294 290 Q300 310 297 335" stroke="#876550" stroke-width="2" fill="none" opacity="0.4" stroke-linecap="round"/>
  
  <!-- Stubble texture -->
  <rect x="180" y="320" width="152" height="70" rx="40" fill="#3D3530" opacity="0.08"/>
  <ellipse cx="256" cy="365" rx="60" ry="25" fill="#3D3530" opacity="0.06"/>
  <!-- Stubble dots -->
  <circle cx="200" cy="340" r="1.2" fill="#3D3530" opacity="0.3"/>
  <circle cx="210" cy="348" r="1" fill="#3D3530" opacity="0.3"/>
  <circle cx="220" cy="342" r="1.2" fill="#3D3530" opacity="0.25"/>
  <circle cx="230" cy="350" r="1" fill="#3D3530" opacity="0.3"/>
  <circle cx="240" cy="345" r="1.2" fill="#3D3530" opacity="0.25"/>
  <circle cx="270" cy="345" r="1.2" fill="#3D3530" opacity="0.25"/>
  <circle cx="280" cy="350" r="1" fill="#3D3530" opacity="0.3"/>
  <circle cx="290" cy="342" r="1.2" fill="#3D3530" opacity="0.25"/>
  <circle cx="300" cy="348" r="1" fill="#3D3530" opacity="0.3"/>
  <circle cx="310" cy="340" r="1.2" fill="#3D3530" opacity="0.3"/>
  <circle cx="215" cy="360" r="1" fill="#8A8480" opacity="0.3"/>
  <circle cx="235" cy="358" r="1" fill="#8A8480" opacity="0.25"/>
  <circle cx="275" cy="358" r="1" fill="#8A8480" opacity="0.25"/>
  <circle cx="295" cy="360" r="1" fill="#8A8480" opacity="0.3"/>
  
  <!-- Mouth - RR viseme: lips slightly rounded and forward, mouth slightly open -->
  <!-- Outer lip shape - rounded, forward puckered -->
  <ellipse cx="256" cy="340" rx="20" ry="16" fill="#6B4535"/>
  <!-- Inner mouth opening - small rounded opening -->
  <ellipse cx="256" cy="340" rx="12" ry="10" fill="#3A1515"/>
  <!-- Upper lip definition -->
  <path d="M236 336 Q244 328 256 327 Q268 328 276 336 Q268 332 256 331 Q244 332 236 336Z" fill="#7B5545"/>
  <!-- Lower lip -->
  <path d="M238 346 Q248 356 256 357 Q264 356 274 346 Q266 352 256 353 Q246 352 238 346Z" fill="#8B6050"/>
  <!-- Lip highlight -->
  <ellipse cx="256" cy="334" rx="8" ry="3" fill="#9B7060" opacity="0.4"/>
  <!-- Tongue hint inside mouth -->
  <ellipse cx="256" cy="344" rx="8" ry="5" fill="#C45050" opacity="0.6"/>
  
  <!-- Crow's feet / smile lines at eyes -->
  <path d="M160 230 Q155 225 158 218" stroke="#876550" stroke-width="1.5" fill="none" opacity="0.3" stroke-linecap="round"/>
  <path d="M352 230 Q357 225 354 218" stroke="#876550" stroke-width="1.5" fill="none" opacity="0.3" stroke-linecap="round"/>
</svg>