<svg xmlns="http://www.w3.org/2000/svg" viewBox="0 0 512 512">
  <!-- Background -->
  <rect width="512" height="512" fill="#FFF5E6"/>
  
  <!-- Neck -->
  <rect x="220" y="390" width="72" height="60" fill="#F0D0B0" rx="10"/>
  
  <!-- Shoulders -->
  <ellipse cx="256" cy="470" rx="120" ry="50" fill="#7B5EA7"/>
  
  <!-- Collar/neckline -->
  <path d="M200 450 Q256 430 312 450" fill="none" stroke="#6B4E97" stroke-width="3"/>
  
  <!-- Ears -->
  <ellipse cx="130" cy="270" rx="22" ry="30" fill="#F0D0B0"/>
  <ellipse cx="130" cy="270" rx="12" ry="18" fill="#E8C0A0"/>
  <ellipse cx="382" cy="270" rx="22" ry="30" fill="#F0D0B0"/>
  <ellipse cx="382" cy="270" rx="12" ry="18" fill="#E8C0A0"/>
  
  <!-- Earrings -->
  <circle cx="130" cy="298" r="5" fill="#D4AF37"/>
  <circle cx="382" cy="298" r="5" fill="#D4AF37"/>
  
  <!-- Face shape -->
  <ellipse cx="256" cy="270" rx="130" ry="145" fill="#F5DAC0"/>
  
  <!-- Wrinkles - forehead -->
  <path d="M200 180 Q256 175 312 180" fill="none" stroke="#E0C0A0" stroke-width="1.5" opacity="0.6"/>
  <path d="M210 195 Q256 190 302 195" fill="none" stroke="#E0C0A0" stroke-width="1.5" opacity="0.6"/>
  
  <!-- Wrinkles - crow's feet left -->
  <path d="M160 255 Q150 248 145 240" fill="none" stroke="#E0C0A0" stroke-width="1.2" opacity="0.5"/>
  <path d="M160 260 Q148 258 143 255" fill="none" stroke="#E0C0A0" stroke-width="1.2" opacity="0.5"/>
  
  <!-- Wrinkles - crow's feet right -->
  <path d="M352 255 Q362 248 367 240" fill="none" stroke="#E0C0A0" stroke-width="1.2" opacity="0.5"/>
  <path d="M352 260 Q364 258 369 255" fill="none" stroke="#E0C0A0" stroke-width="1.2" opacity="0.5"/>
  
  <!-- Nasolabial folds -->
  <path d="M218 300 Q215 320 222 345" fill="none" stroke="#E0C0A0" stroke-width="1.5" opacity="0.5"/>
  <path d="M294 300 Q297 320 290 345" fill="none" stroke="#E0C0A0" stroke-width="1.5" opacity="0.5"/>
  
  <!-- Rosy cheeks -->
  <ellipse cx="190" cy="310" rx="28" ry="20" fill="#F5A0A0" opacity="0.4"/>
  <ellipse cx="322" cy="310" rx="28" ry="20" fill="#F5A0A0" opacity="0.4"/>
  
  <!-- Eyes - whites -->
  <ellipse cx="205" cy="260" rx="28" ry="22" fill="white"/>
  <ellipse cx="307" cy="260" rx="28" ry="22" fill="white"/>
  
  <!-- Eyes - iris -->
  <circle cx="208" cy="262" r="14" fill="#5B8C5A"/>
  <circle cx="310" cy="262" r="14" fill="#5B8C5A"/>
  
  <!-- Eyes - pupils -->
  <circle cx="210" cy="264" r="7" fill="#2D2D2D"/>
  <circle cx="312" cy="264" r="7" fill="#2D2D2D"/>
  
  <!-- Eyes - highlights -->
  <circle cx="214" cy="258" r="4" fill="white"/>
  <circle cx="316" cy="258" r="4" fill="white"/>
  
  <!-- Eyelids - upper -->
  <path d="M175 252 Q205 238 235 252" fill="none" stroke="#8B6B50" stroke-width="3" stroke-linecap="round"/>
  <path d="M277 252 Q307 238 337 252" fill="none" stroke="#8B6B50" stroke-width="3" stroke-linecap="round"/>
  
  <!-- Eyelashes -->
  <path d="M175 252 Q172 246 170 242" fill="none" stroke="#8B6B50" stroke-width="2" stroke-linecap="round"/>
  <path d="M337 252 Q340 246 342 242" fill="none" stroke="#8B6B50" stroke-width="2" stroke-linecap="round"/>
  
  <!-- Eyebrows -->
  <path d="M178 230 Q205 218 235 225" fill="none" stroke="#9E9E9E" stroke-width="4" stroke-linecap="round"/>
  <path d="M277 225 Q307 218 334 230" fill="none" stroke="#9E9E9E" stroke-width="4" stroke-linecap="round"/>
  
  <!-- Glasses frames (subtle) -->
  <ellipse cx="205" cy="260" rx="35" ry="28" fill="none" stroke="#A08060" stroke-width="2" opacity="0.4"/>
  <ellipse cx="307" cy="260" rx="35" ry="28" fill="none" stroke="#A08060" stroke-width="2" opacity="0.4"/>
  <path d="M240 258 Q256 265 272 258" fill="none" stroke="#A08060" stroke-width="2" opacity="0.4"/>
  
  <!-- Nose -->
  <path d="M256 285 Q248 305 240 315 Q256 320 272 315 Q264 305 256 285" fill="#E8C0A0" stroke="none"/>
  <path d="M248 310 Q256 315 264 310" fill="none" stroke="#D0A080" stroke-width="1.5" opacity="0.7"/>
  
  <!-- Mouth - DD viseme: slightly open, tongue behind upper teeth -->
  <!-- Outer lip shape -->
  <path d="M228 355 Q256 350 284 355 Q288 362 284 370 Q256 378 228 370 Q224 362 228 355 Z" fill="#3D1515" stroke="#C06060" stroke-width="2"/>
  
  <!-- Upper teeth -->
  <rect x="235" y="355" width="42" height="8" fill="white" rx="2"/>
  <line x1="249" y1="355" x2="249" y2="363" stroke="#E0E0E0" stroke-width="0.5"/>
  <line x1="263" y1="355" x2="263" y2="363" stroke="#E0E0E0" stroke-width="0.5"/>
  
  <!-- Tongue behind upper teeth -->
  <ellipse cx="256" cy="369" rx="20" ry="7" fill="#E06060"/>
  <path d="M240 365 Q256 362 272 365" fill="#C85050" opacity="0.6"/>
  
  <!-- Upper lip -->
  <path d="M228 355 Q242 348 256 346 Q270 348 284 355" fill="none" stroke="#C07070" stroke-width="2.5" stroke-linecap="round"/>
  
  <!-- Lower lip highlight -->
  <path d="M235 372 Q256 376 277 372" fill="none" stroke="#C07070" stroke-width="2" stroke-linecap="round"/>
  
  <!-- Hair - silver bun -->
  <!-- Back hair -->
  <ellipse cx="256" cy="165" rx="135" ry="80" fill="#C0C0C0"/>
  
  <!-- Side hair left -->
  <path d="M126 200 Q120 240 130 270 Q135 240 140 210 Q145 180 160 160 Q140 170 126 200" fill="#B8B8B8"/>
  
  <!-- Side hair right -->
  <path d="M386 200 Q392 240 382 270 Q377 240 372 210 Q367 180 352 160 Q372 170 386 200" fill="#B8B8B8"/>
  
  <!-- Top hair -->
  <path d="M145 200 Q160 145 200 125 Q230 110 256 108 Q282 110 312 125 Q352 145 367 200 Q360 170 340 150 Q310 125 256 120 Q202 125 172 150 Q152 170 145 200" fill="#D0D0D0"/>
  
  <!-- Bun -->
  <circle cx="256" cy="120" r="40" fill="#C8C8C8"/>
  <circle cx="256" cy="120" r="35" fill="#D4D4D4"/>
  <!-- Bun swirl details -->
  <path d="M240 110 Q256 100 272 110 Q278 120 272 130 Q256 138 240 130 Q234 120 240 110" fill="none" stroke="#A8A8A8" stroke-width="2" opacity="0.6"/>
  <path d="M248 115 Q256 108 264 115 Q268 122 264 128 Q256 132 248 128 Q244 122 248 115" fill="none" stroke="#A8A8A8" stroke-width="1.5" opacity="0.5"/>
  
  <!-- Hair pin -->
  <line x1="240" y1="105" x2="235" y2="90" stroke="#D4AF37" stroke-width="2.5" stroke-linecap="round"/>
  <circle cx="235" cy="88" r="4" fill="#D4AF37"/>
</svg>