<svg xmlns="http://www.w3.org/2000/svg" viewBox="0 0 512 512">
  <!-- Background -->
  <rect width="512" height="512" fill="#FFF5E6"/>
  
  <!-- Neck -->
  <rect x="220" y="390" width="72" height="60" fill="#F0D0B0" rx="10"/>
  
  <!-- Shoulders -->
  <ellipse cx="256" cy="470" rx="120" ry="50" fill="#7B5EA7"/>
  
  <!-- Collar/neckline -->
  <path d="M200 450 Q256 430 312 450" fill="none" stroke="#6B4E97" stroke-width="3"/>
  
  <!-- Ears -->
  <ellipse cx="130" cy="270" rx="22" ry="30" fill="#F0D0B0"/>
  <ellipse cx="130" cy="270" rx="12" ry="18" fill="#E8C0A0"/>
  <ellipse cx="382" cy="270" rx="22" ry="30" fill="#F0D0B0"/>
  <ellipse cx="382" cy="270" rx="12" ry="18" fill="#E8C0A0"/>
  
  <!-- Earrings -->
  <circle cx="130" cy="298" r="5" fill="#D4AF37"/>
  <circle cx="382" cy="298" r="5" fill="#D4AF37"/>
  
  <!-- Face shape -->
  <ellipse cx="256" cy="270" rx="130" ry="145" fill="#F5DAC0"/>
  
  <!-- Wrinkles - forehead -->
  <path d="M200 180 Q256 175 312 180" fill="none" stroke="#E0C0A0" stroke-width="1.5" opacity="0.6"/>
  <path d="M210 195 Q256 190 302 195" fill="none" stroke="#E0C0A0" stroke-width="1.5" opacity="0.6"/>
  
  <!-- Wrinkles - crow's feet left -->
  <path d="M160 255 Q150 248 145 240" fill="none" stroke="#E0C0A0" stroke-width="1.2" opacity="0.5"/>
  <path d="M160 260 Q148 258 143 255" fill="none" stroke="#E0C0A0" stroke-width="1.2" opacity="0.5"/>
  
  <!-- Wrinkles - crow's feet right -->
  <path d="M352 255 Q362 248 367 240" fill="none" stroke="#E0C0A0" stroke-width="1.2" opacity="0.5"/>
  <path d="M352 260 Q364 258 369 255" fill="none" stroke="#E0C0A0" stroke-width="1.2" opacity="0.5"/>
  
  <!-- Nasolabial folds -->
  <path d="M218 300 Q215 320 222 345" fill="none" stroke="#E0C0A0" stroke-width="1.5" opacity="0.5"/>
  <path d="M294 300 Q297 320 290 345" fill="none" stroke="#E0C0A0" stroke-width="1.5" opacity="0.5"/>
  
  <!-- Rosy cheeks -->
  <ellipse cx="190" cy="310" rx="28" ry="20" fill="#F5A0A0" opacity="0.4"/>
  <ellipse cx="322" cy="310" rx="28" ry="20" fill="#F5A0A0" opacity="0.4"/>
  
  <!-- Eyes - whites -->
  <ellipse cx="205" cy="260" rx="28" ry="22" fill="white"/>
  <ellipse cx="307" cy="260" rx="28" ry="22" fill="white"/>
  
  <!-- Eyes - iris -->
  <circle cx="208" cy="262" r="14" fill="#5B8C5A"/>
  <circle cx="310" cy="262" r="14" fill="#5B8C5A"/>
  
  <!-- Eyes - pupils -->
  <circle cx="210" cy="264" r="7" fill="#2D2D2D"/>
  <circle cx="312" cy="264" r="7" fill="#2D2D2D"/>
  
  <!-- Eyes - highlights -->
  <circle cx="214" cy="258" r="4" fill="white"/>
  <circle cx="316" cy="258" r="4" fill="white"/>
  
  <!-- Eyelids - upper -->
  <path d="M175 252 Q205 238 235 252" fill="none" stroke="#8B6B50" stroke-width="3" stroke-linecap="round"/>
  <path d="M277 252 Q307 238 337 252" fill="none" stroke="#8B6B50" stroke-width="3" stroke-linecap="round"/>
  
  <!-- Eyelashes -->
  <path d="M175 252 Q172 246 170 242" fill="none" stroke="#8B6B50" stroke-width="2" stroke-linecap="round"/>
  <path d="M337 252 Q340 246 342 242" fill="none" stroke="#8B6B50" stroke-width="2" stroke-linecap="round"/>
  
  <!-- Eyebrows -->
  <path d="M178 232 Q205 220 235 228" fill="none" stroke="#9E9E9E" stroke-width="4" stroke-linecap="round"/>
  <path d="M277 228 Q307 220 334 232" fill="none" stroke="#9E9E9E" stroke-width="4" stroke-linecap="round"/>
  
  <!-- Glasses frames (subtle) -->
  <ellipse cx="205" cy="260" rx="35" ry="28" fill="none" stroke="#A08060" stroke-width="2" opacity="0.4"/>
  <ellipse cx="307" cy="260" rx="35" ry="28" fill="none" stroke="#A08060" stroke-width="2" opacity="0.4"/>
  <path d="M240 258 Q256 265 272 258" fill="none" stroke="#A08060" stroke-width="2" opacity="0.4"/>
  
  <!-- Nose -->
  <path d="M250 290 Q256 305 262 290" fill="none" stroke="#D4A080" stroke-width="2.5" stroke-linecap="round"/>
  <path d="M245 300 Q256 308 267 300" fill="none" stroke="#D4A080" stroke-width="2" stroke-linecap="round"/>
  
  <!-- Mouth - "E" viseme: wide spread lips, half open -->
  <ellipse cx="256" cy="355" rx="35" ry="16" fill="#3D1010"/>
  <!-- Upper lip -->
  <path d="M221 352 Q235 345 256 345 Q277 345 291 352" fill="#C07070" stroke="#A05050" stroke-width="1.5"/>
  <!-- Lower lip -->
  <path d="M221 358 Q235 372 256 372 Q277 372 291 358" fill="#D08080" stroke="#A05050" stroke-width="1.5"/>
  <!-- Teeth hint -->
  <rect x="235" y="348" width="42" height="10" fill="white" rx="2"/>
  <!-- Tongue hint -->
  <ellipse cx="256" cy="365" rx="15" ry="7" fill="#C05050" opacity="0.7"/>
  
  <!-- Hair - silver bun -->
  <!-- Base hair around head -->
  <path d="M126 240 Q126 140 200 115 Q256 95 312 115 Q386 140 386 240" fill="#C8C8D0" stroke="none"/>
  <!-- Hair side left -->
  <path d="M126 240 Q126 200 140 180 Q150 160 170 150 Q130 180 130 240 Z" fill="#B8B8C0"/>
  <!-- Hair side right -->
  <path d="M386 240 Q386 200 372 180 Q362 160 342 150 Q382 180 382 240 Z" fill="#B8B8C0"/>
  <!-- Bun on top -->
  <ellipse cx="256" cy="110" rx="50" ry="40" fill="#C8C8D0"/>
  <ellipse cx="256" cy="105" rx="42" ry="33" fill="#D4D4DC"/>
  <!-- Bun details -->
  <path d="M230 95 Q256 85 282 95" fill="none" stroke="#B0B0B8" stroke-width="2" opacity="0.7"/>
  <path d="M225 108 Q256 98 287 108" fill="none" stroke="#B0B0B8" stroke-width="2" opacity="0.7"/>
  <path d="M228 120 Q256 112 284 120" fill="none" stroke="#B0B0B8" stroke-width="2" opacity="0.7"/>
  <!-- Hair texture lines -->
  <path d="M160 160 Q170 180 165 210" fill="none" stroke="#B0B0B8" stroke-width="1.5" opacity="0.5"/>
  <path d="M352 160 Q342 180 347 210" fill="none" stroke="#B0B0B8" stroke-width="1.5" opacity="0.5"/>
  <path d="M200 125 Q210 140 205 160" fill="none" stroke="#B0B0B8" stroke-width="1.5" opacity="0.5"/>
  <path d="M312 125 Q302 140 307 160" fill="none" stroke="#B0B0B8" stroke-width="1.5" opacity="0.5"/>
</svg>