<svg xmlns="http://www.w3.org/2000/svg" viewBox="0 0 512 512">
  <!-- Background -->
  <rect width="512" height="512" fill="#FFF5E6"/>
  
  <!-- Neck -->
  <rect x="220" y="390" width="72" height="60" fill="#F0D0B0" rx="10"/>
  
  <!-- Shoulders -->
  <ellipse cx="256" cy="470" rx="120" ry="50" fill="#7B5EA7"/>
  
  <!-- Collar/neckline -->
  <path d="M200 450 Q256 430 312 450" fill="none" stroke="#6B4E97" stroke-width="3"/>
  
  <!-- Ears -->
  <ellipse cx="130" cy="270" rx="22" ry="30" fill="#F0D0B0"/>
  <ellipse cx="130" cy="270" rx="12" ry="18" fill="#E8C0A0"/>
  <ellipse cx="382" cy="270" rx="22" ry="30" fill="#F0D0B0"/>
  <ellipse cx="382" cy="270" rx="12" ry="18" fill="#E8C0A0"/>
  
  <!-- Earrings -->
  <circle cx="130" cy="298" r="5" fill="#D4AF37"/>
  <circle cx="382" cy="298" r="5" fill="#D4AF37"/>
  
  <!-- Face shape -->
  <ellipse cx="256" cy="270" rx="130" ry="145" fill="#F5DAC0"/>
  
  <!-- Wrinkles - forehead -->
  <path d="M200 180 Q256 175 312 180" fill="none" stroke="#E0C0A0" stroke-width="1.5" opacity="0.6"/>
  <path d="M210 195 Q256 190 302 195" fill="none" stroke="#E0C0A0" stroke-width="1.5" opacity="0.6"/>
  
  <!-- Wrinkles - crow's feet left -->
  <path d="M160 255 Q150 248 145 240" fill="none" stroke="#E0C0A0" stroke-width="1.2" opacity="0.5"/>
  <path d="M160 260 Q148 258 143 255" fill="none" stroke="#E0C0A0" stroke-width="1.2" opacity="0.5"/>
  
  <!-- Wrinkles - crow's feet right -->
  <path d="M352 255 Q362 248 367 240" fill="none" stroke="#E0C0A0" stroke-width="1.2" opacity="0.5"/>
  <path d="M352 260 Q364 258 369 255" fill="none" stroke="#E0C0A0" stroke-width="1.2" opacity="0.5"/>
  
  <!-- Nasolabial folds -->
  <path d="M218 300 Q215 320 222 345" fill="none" stroke="#E0C0A0" stroke-width="1.5" opacity="0.5"/>
  <path d="M294 300 Q297 320 290 345" fill="none" stroke="#E0C0A0" stroke-width="1.5" opacity="0.5"/>
  
  <!-- Rosy cheeks -->
  <ellipse cx="190" cy="310" rx="28" ry="20" fill="#F5A0A0" opacity="0.4"/>
  <ellipse cx="322" cy="310" rx="28" ry="20" fill="#F5A0A0" opacity="0.4"/>
  
  <!-- Eyes - whites -->
  <ellipse cx="205" cy="260" rx="28" ry="22" fill="white"/>
  <ellipse cx="307" cy="260" rx="28" ry="22" fill="white"/>
  
  <!-- Eyes - iris -->
  <circle cx="208" cy="262" r="14" fill="#5B8C5A"/>
  <circle cx="310" cy="262" r="14" fill="#5B8C5A"/>
  
  <!-- Eyes - pupils -->
  <circle cx="210" cy="264" r="7" fill="#2D2D2D"/>
  <circle cx="312" cy="264" r="7" fill="#2D2D2D"/>
  
  <!-- Eyes - highlights -->
  <circle cx="214" cy="258" r="4" fill="white"/>
  <circle cx="316" cy="258" r="4" fill="white"/>
  
  <!-- Eyelids - upper -->
  <path d="M175 252 Q205 238 235 252" fill="none" stroke="#8B6B50" stroke-width="3" stroke-linecap="round"/>
  <path d="M277 252 Q307 238 337 252" fill="none" stroke="#8B6B50" stroke-width="3" stroke-linecap="round"/>
  
  <!-- Eyelashes -->
  <path d="M175 252 Q172 246 170 242" fill="none" stroke="#8B6B50" stroke-width="2" stroke-linecap="round"/>
  <path d="M337 252 Q340 246 342 242" fill="none" stroke="#8B6B50" stroke-width="2" stroke-linecap="round"/>
  
  <!-- Eyebrows -->
  <path d="M178 232 Q205 218 235 228" fill="none" stroke="#9E9E9E" stroke-width="4" stroke-linecap="round"/>
  <path d="M277 228 Q307 218 334 232" fill="none" stroke="#9E9E9E" stroke-width="4" stroke-linecap="round"/>
  
  <!-- Glasses frames (optional subtle) -->
  
  <!-- Nose -->
  <path d="M250 290 Q256 310 262 290" fill="none" stroke="#D4A88C" stroke-width="2.5" stroke-linecap="round"/>
  <path d="M245 305 Q256 312 267 305" fill="none" stroke="#D4A88C" stroke-width="2" stroke-linecap="round"/>
  
  <!-- Mouth - FF viseme: upper teeth on lower lip -->
  <!-- Lower lip -->
  <path d="M228 358 Q256 368 284 358" fill="#D47070" stroke="#C05050" stroke-width="1.5"/>
  
  <!-- Mouth opening / gap between teeth and lower lip -->
  <path d="M230 352 Q256 354 282 352 L282 358 Q256 368 230 358 Z" fill="#4A1520"/>
  
  <!-- Upper teeth resting on lower lip -->
  <rect x="230" y="348" width="52" height="10" fill="white" rx="2"/>
  <!-- Teeth line divisions -->
  <line x1="243" y1="348" x2="243" y2="358" stroke="#E8E8E8" stroke-width="1"/>
  <line x1="256" y1="348" x2="256" y2="358" stroke="#E8E8E8" stroke-width="1"/>
  <line x1="269" y1="348" x2="269" y2="358" stroke="#E8E8E8" stroke-width="1"/>
  
  <!-- Upper lip line -->
  <path d="M228 348 Q242 344 256 346 Q270 344 284 348" fill="none" stroke="#C06060" stroke-width="2" stroke-linecap="round"/>
  
  <!-- Hair - silver bun -->
  <!-- Back hair mass -->
  <ellipse cx="256" cy="160" rx="135" ry="100" fill="#C8C8C8"/>
  
  <!-- Hair sides covering top of head -->
  <path d="M126 250 Q126 140 200 120 Q256 100 312 120 Q386 140 386 250" fill="#D0D0D0" stroke="none"/>
  
  <!-- Hair front wave/volume -->
  <path d="M145 220 Q150 160 200 135 Q256 115 312 135 Q362 160 367 220" fill="#C0C0C0"/>
  
  <!-- Hair part and texture lines -->
  <path d="M256 115 Q250 140 248 180" fill="none" stroke="#A8A8A8" stroke-width="1.5" opacity="0.6"/>
  <path d="M220 125 Q215 150 212 190" fill="none" stroke="#A8A8A8" stroke-width="1.2" opacity="0.5"/>
  <path d="M292 125 Q297 150 300 190" fill="none" stroke="#A8A8A8" stroke-width="1.2" opacity="0.5"/>
  
  <!-- Bun -->
  <circle cx="256" cy="115" r="40" fill="#B8B8B8"/>
  <circle cx="256" cy="115" r="40" fill="none" stroke="#A0A0A0" stroke-width="1.5"/>
  <!-- Bun swirl detail -->
  <path d="M256 95 Q270 105 260 115 Q250 125 256 135" fill="none" stroke="#A0A0A0" stroke-width="2" opacity="0.6"/>
  <path d="M245 100 Q235 110 245 120" fill="none" stroke="#A0A0A0" stroke-width="1.5" opacity="0.5"/>
</svg>