<svg xmlns="http://www.w3.org/2000/svg" viewBox="0 0 512 512">
  <!-- Background -->
  <rect width="512" height="512" fill="#FFF5E6"/>
  
  <!-- Neck -->
  <rect x="220" y="390" width="72" height="60" fill="#F0D0B0" rx="10"/>
  
  <!-- Shoulders -->
  <ellipse cx="256" cy="470" rx="120" ry="50" fill="#7B5EA7"/>
  
  <!-- Collar/neckline -->
  <path d="M200 450 Q256 430 312 450" fill="none" stroke="#6B4E97" stroke-width="3"/>
  
  <!-- Ears -->
  <ellipse cx="130" cy="270" rx="22" ry="30" fill="#F0D0B0"/>
  <ellipse cx="130" cy="270" rx="12" ry="18" fill="#E8C0A0"/>
  <ellipse cx="382" cy="270" rx="22" ry="30" fill="#F0D0B0"/>
  <ellipse cx="382" cy="270" rx="12" ry="18" fill="#E8C0A0"/>
  
  <!-- Earrings -->
  <circle cx="130" cy="298" r="5" fill="#D4AF37"/>
  <circle cx="382" cy="298" r="5" fill="#D4AF37"/>
  
  <!-- Face shape -->
  <ellipse cx="256" cy="270" rx="130" ry="145" fill="#F5DAC0"/>
  
  <!-- Wrinkles - forehead -->
  <path d="M200 180 Q256 175 312 180" fill="none" stroke="#E0C0A0" stroke-width="1.5" opacity="0.6"/>
  <path d="M210 195 Q256 190 302 195" fill="none" stroke="#E0C0A0" stroke-width="1.5" opacity="0.6"/>
  
  <!-- Wrinkles - crow's feet left -->
  <path d="M160 255 Q150 248 145 240" fill="none" stroke="#E0C0A0" stroke-width="1.2" opacity="0.5"/>
  <path d="M160 260 Q148 258 143 255" fill="none" stroke="#E0C0A0" stroke-width="1.2" opacity="0.5"/>
  
  <!-- Wrinkles - crow's feet right -->
  <path d="M352 255 Q362 248 367 240" fill="none" stroke="#E0C0A0" stroke-width="1.2" opacity="0.5"/>
  <path d="M352 260 Q364 258 369 255" fill="none" stroke="#E0C0A0" stroke-width="1.2" opacity="0.5"/>
  
  <!-- Nasolabial folds -->
  <path d="M218 300 Q215 320 222 345" fill="none" stroke="#E0C0A0" stroke-width="1.5" opacity="0.5"/>
  <path d="M294 300 Q297 320 290 345" fill="none" stroke="#E0C0A0" stroke-width="1.5" opacity="0.5"/>
  
  <!-- Rosy cheeks -->
  <ellipse cx="190" cy="310" rx="28" ry="20" fill="#F5A0A0" opacity="0.4"/>
  <ellipse cx="322" cy="310" rx="28" ry="20" fill="#F5A0A0" opacity="0.4"/>
  
  <!-- Eyes - whites -->
  <ellipse cx="205" cy="260" rx="28" ry="22" fill="white"/>
  <ellipse cx="307" cy="260" rx="28" ry="22" fill="white"/>
  
  <!-- Eyes - iris -->
  <circle cx="208" cy="262" r="14" fill="#5B8C5A"/>
  <circle cx="310" cy="262" r="14" fill="#5B8C5A"/>
  
  <!-- Eyes - pupils -->
  <circle cx="210" cy="264" r="7" fill="#2D2D2D"/>
  <circle cx="312" cy="264" r="7" fill="#2D2D2D"/>
  
  <!-- Eyes - highlights -->
  <circle cx="214" cy="258" r="4" fill="white"/>
  <circle cx="316" cy="258" r="4" fill="white"/>
  
  <!-- Eyelids - upper -->
  <path d="M175 252 Q205 238 235 252" fill="none" stroke="#8B6B50" stroke-width="3" stroke-linecap="round"/>
  <path d="M277 252 Q307 238 337 252" fill="none" stroke="#8B6B50" stroke-width="3" stroke-linecap="round"/>
  
  <!-- Eyelashes -->
  <path d="M175 252 Q172 246 170 242" fill="none" stroke="#8B6B50" stroke-width="2" stroke-linecap="round"/>
  <path d="M337 252 Q340 246 342 242" fill="none" stroke="#8B6B50" stroke-width="2" stroke-linecap="round"/>
  
  <!-- Eyebrows -->
  <path d="M178 232 Q205 220 235 228" fill="none" stroke="#9E9E9E" stroke-width="4" stroke-linecap="round"/>
  <path d="M277 228 Q307 220 334 232" fill="none" stroke="#9E9E9E" stroke-width="4" stroke-linecap="round"/>
  
  <!-- Glasses frames (subtle) -->
  <ellipse cx="205" cy="260" rx="35" ry="28" fill="none" stroke="#A08060" stroke-width="2" opacity="0.4"/>
  <ellipse cx="307" cy="260" rx="35" ry="28" fill="none" stroke="#A08060" stroke-width="2" opacity="0.4"/>
  <path d="M240 258 Q256 265 272 258" fill="none" stroke="#A08060" stroke-width="2" opacity="0.4"/>
  
  <!-- Nose -->
  <path d="M250 290 Q256 305 262 290" fill="none" stroke="#D4A888" stroke-width="2.5" stroke-linecap="round"/>
  <path d="M245 300 Q256 308 267 300" fill="none" stroke="#D4A888" stroke-width="2" stroke-linecap="round"/>
  
  <!-- Mouth - O shape (rounded open) -->
  <ellipse cx="256" cy="350" rx="20" ry="24" fill="#3D1515"/>
  <!-- Lips outline -->
  <ellipse cx="256" cy="350" rx="22" ry="26" fill="none" stroke="#C07070" stroke-width="4"/>
  <!-- Upper lip highlight -->
  <path d="M238 338 Q248 334 256 335 Q264 334 274 338" fill="none" stroke="#D08080" stroke-width="2.5" stroke-linecap="round"/>
  <!-- Tongue hint -->
  <ellipse cx="256" cy="362" rx="12" ry="8" fill="#C06060" opacity="0.6"/>
  
  <!-- Hair - silver bun -->
  <!-- Back hair mass -->
  <path d="M130 220 Q130 120 256 110 Q382 120 382 220 Q382 180 350 155 Q300 120 256 125 Q212 120 162 155 Q130 180 130 220" fill="#C8C8D0"/>
  
  <!-- Hair sides -->
  <path d="M130 220 Q125 180 150 150 Q180 120 220 115 Q200 140 180 170 Q155 200 148 240 Z" fill="#B8B8C4"/>
  <path d="M382 220 Q387 180 362 150 Q332 120 292 115 Q312 140 332 170 Q357 200 364 240 Z" fill="#B8B8C4"/>
  
  <!-- Top hair volume -->
  <path d="M160 190 Q170 130 256 115 Q342 130 352 190 Q340 145 256 135 Q172 145 160 190" fill="#D0D0D8"/>
  
  <!-- Bun -->
  <ellipse cx="256" cy="115" rx="45" ry="38" fill="#C0C0CC"/>
  <ellipse cx="256" cy="112" rx="35" ry="28" fill="#D0D0D8"/>
  <!-- Bun swirl detail -->
  <path d="M240 108 Q256 98 272 108 Q265 115 256 112 Q247 115 240 108" fill="none" stroke="#A8A8B4" stroke-width="2" opacity="0.7"/>
  <path d="M245 120 Q256 125 267 120" fill="none" stroke="#A8A8B4" stroke-width="1.5" opacity="0.5"/>
  
  <!-- Hair pin -->
  <circle cx="275" cy="105" r="4" fill="#D4AF37"/>
  
  <!-- Temple hair wisps -->
  <path d="M148 230 Q140 250 145 270" fill="none" stroke="#B8B8C4" stroke-width="3" stroke-linecap="round" opacity="0.7"/>
  <path d="M364 230 Q372 250 367 270" fill="none" stroke="#B8B8C4" stroke-width="3" stroke-linecap="round" opacity="0.7"/>
</svg>