<svg xmlns="http://www.w3.org/2000/svg" viewBox="0 0 512 512">
  <!-- Background -->
  <rect width="512" height="512" fill="#FFF5E6"/>
  
  <!-- Neck -->
  <rect x="220" y="390" width="72" height="60" fill="#F0D0B0" rx="10"/>
  
  <!-- Shoulders -->
  <ellipse cx="256" cy="470" rx="120" ry="50" fill="#7B5EA7"/>
  
  <!-- Collar/neckline -->
  <path d="M200 450 Q256 430 312 450" fill="none" stroke="#6B4E97" stroke-width="3"/>
  
  <!-- Ears -->
  <ellipse cx="130" cy="270" rx="22" ry="30" fill="#F0D0B0"/>
  <ellipse cx="130" cy="270" rx="12" ry="18" fill="#E8C0A0"/>
  <ellipse cx="382" cy="270" rx="22" ry="30" fill="#F0D0B0"/>
  <ellipse cx="382" cy="270" rx="12" ry="18" fill="#E8C0A0"/>
  
  <!-- Earrings -->
  <circle cx="130" cy="298" r="5" fill="#D4AF37"/>
  <circle cx="382" cy="298" r="5" fill="#D4AF37"/>
  
  <!-- Face shape -->
  <ellipse cx="256" cy="270" rx="130" ry="145" fill="#F5DAC0"/>
  
  <!-- Hair - silver bun -->
  <ellipse cx="256" cy="145" rx="110" ry="60" fill="#C8C8D0"/>
  <path d="M146 170 Q140 250 150 270" fill="#C8C8D0" stroke="none"/>
  <path d="M366 170 Q372 250 362 270" fill="#C8C8D0" stroke="none"/>
  <circle cx="256" cy="105" r="40" fill="#B8B8C2"/>
  <circle cx="256" cy="105" r="35" fill="#C8C8D0"/>
  <!-- Hair shine -->
  <path d="M235 90 Q256 82 277 90" fill="none" stroke="#D8D8E0" stroke-width="3" opacity="0.7"/>
  
  <!-- Wrinkles - forehead -->
  <path d="M200 180 Q256 175 312 180" fill="none" stroke="#E0C0A0" stroke-width="1.5" opacity="0.6"/>
  <path d="M210 195 Q256 190 302 195" fill="none" stroke="#E0C0A0" stroke-width="1.5" opacity="0.6"/>
  
  <!-- Wrinkles - crow's feet left -->
  <path d="M160 255 Q150 248 145 240" fill="none" stroke="#E0C0A0" stroke-width="1.2" opacity="0.5"/>
  <path d="M160 260 Q148 258 143 255" fill="none" stroke="#E0C0A0" stroke-width="1.2" opacity="0.5"/>
  
  <!-- Wrinkles - crow's feet right -->
  <path d="M352 255 Q362 248 367 240" fill="none" stroke="#E0C0A0" stroke-width="1.2" opacity="0.5"/>
  <path d="M352 260 Q364 258 369 255" fill="none" stroke="#E0C0A0" stroke-width="1.2" opacity="0.5"/>
  
  <!-- Nasolabial folds -->
  <path d="M218 300 Q215 320 222 345" fill="none" stroke="#E0C0A0" stroke-width="1.5" opacity="0.5"/>
  <path d="M294 300 Q297 320 290 345" fill="none" stroke="#E0C0A0" stroke-width="1.5" opacity="0.5"/>
  
  <!-- Rosy cheeks -->
  <ellipse cx="190" cy="310" rx="28" ry="20" fill="#F5A0A0" opacity="0.4"/>
  <ellipse cx="322" cy="310" rx="28" ry="20" fill="#F5A0A0" opacity="0.4"/>
  
  <!-- Eyes - whites -->
  <ellipse cx="205" cy="260" rx="28" ry="22" fill="white"/>
  <ellipse cx="307" cy="260" rx="28" ry="22" fill="white"/>
  
  <!-- Eyes - iris -->
  <circle cx="208" cy="262" r="14" fill="#5B8C5A"/>
  <circle cx="310" cy="262" r="14" fill="#5B8C5A"/>
  
  <!-- Eyes - pupils -->
  <circle cx="210" cy="264" r="7" fill="#2D2D2D"/>
  <circle cx="312" cy="264" r="7" fill="#2D2D2D"/>
  
  <!-- Eyes - highlights -->
  <circle cx="214" cy="258" r="4" fill="white"/>
  <circle cx="316" cy="258" r="4" fill="white"/>
  
  <!-- Eyelids - upper -->
  <path d="M175 252 Q205 238 235 252" fill="none" stroke="#8B6B50" stroke-width="3" stroke-linecap="round"/>
  <path d="M277 252 Q307 238 337 252" fill="none" stroke="#8B6B50" stroke-width="3" stroke-linecap="round"/>
  
  <!-- Eyelashes -->
  <path d="M175 252 Q172 246 170 242" fill="none" stroke="#8B6B50" stroke-width="2" stroke-linecap="round"/>
  <path d="M337 252 Q340 246 342 242" fill="none" stroke="#8B6B50" stroke-width="2" stroke-linecap="round"/>
  
  <!-- Eyebrows -->
  <path d="M178 232 Q205 220 235 228" fill="none" stroke="#9A9A9A" stroke-width="4" stroke-linecap="round"/>
  <path d="M277 228 Q307 220 334 232" fill="none" stroke="#9A9A9A" stroke-width="4" stroke-linecap="round"/>
  
  <!-- Glasses hint (optional subtle) -->
  
  <!-- Nose -->
  <path d="M250 290 Q256 305 262 290" fill="none" stroke="#D4A882" stroke-width="2.5" stroke-linecap="round"/>
  <circle cx="248" cy="298" r="4" fill="none" stroke="#D4A882" stroke-width="1.5"/>
  <circle cx="264" cy="298" r="4" fill="none" stroke="#D4A882" stroke-width="1.5"/>
  
  <!-- Mouth - PP viseme: lips firmly pressed together with tension -->
  <path d="M228 355 Q242 352 256 351 Q270 352 284 355" fill="#C07070" stroke="#A05050" stroke-width="2.5" stroke-linecap="round"/>
  <path d="M228 355 Q242 358 256 359 Q270 358 284 355" fill="#D08080" stroke="#A05050" stroke-width="2.5" stroke-linecap="round"/>
  <!-- Lip tension lines -->
  <path d="M232 355 L228 355" fill="none" stroke="#A05050" stroke-width="1.5" stroke-linecap="round"/>
  <path d="M284 355 L280 355" fill="none" stroke="#A05050" stroke-width="1.5" stroke-linecap="round"/>
  <!-- Lip press line in center -->
  <path d="M235 355.5 Q256 354 277 355.5" fill="none" stroke="#8B4040" stroke-width="2" stroke-linecap="round"/>
  <!-- Slight chin dimple from tension -->
  <path d="M245 368 Q256 372 267 368" fill="none" stroke="#E0C0A0" stroke-width="1.2" opacity="0.5"/>
</svg>