<svg xmlns="http://www.w3.org/2000/svg" viewBox="0 0 512 512">
  <!-- Background -->
  <rect width="512" height="512" fill="#FFF5E6"/>
  
  <!-- Neck -->
  <rect x="220" y="390" width="72" height="60" fill="#F0D0B0" rx="10"/>
  
  <!-- Shoulders -->
  <ellipse cx="256" cy="470" rx="120" ry="50" fill="#7B5EA7"/>
  
  <!-- Collar/neckline -->
  <path d="M200 450 Q256 430 312 450" fill="none" stroke="#6B4E97" stroke-width="3"/>
  
  <!-- Ears -->
  <ellipse cx="130" cy="270" rx="22" ry="30" fill="#F0D0B0"/>
  <ellipse cx="130" cy="270" rx="12" ry="18" fill="#E8C0A0"/>
  <ellipse cx="382" cy="270" rx="22" ry="30" fill="#F0D0B0"/>
  <ellipse cx="382" cy="270" rx="12" ry="18" fill="#E8C0A0"/>
  
  <!-- Earrings -->
  <circle cx="130" cy="298" r="5" fill="#D4AF37"/>
  <circle cx="382" cy="298" r="5" fill="#D4AF37"/>
  
  <!-- Face shape -->
  <ellipse cx="256" cy="270" rx="130" ry="145" fill="#F5DAC0"/>
  
  <!-- Wrinkles - forehead -->
  <path d="M200 180 Q256 175 312 180" fill="none" stroke="#E0C0A0" stroke-width="1.5" opacity="0.6"/>
  <path d="M210 195 Q256 190 302 195" fill="none" stroke="#E0C0A0" stroke-width="1.5" opacity="0.6"/>
  
  <!-- Wrinkles - crow's feet left -->
  <path d="M160 255 Q150 248 145 240" fill="none" stroke="#E0C0A0" stroke-width="1.2" opacity="0.5"/>
  <path d="M160 260 Q148 258 143 255" fill="none" stroke="#E0C0A0" stroke-width="1.2" opacity="0.5"/>
  
  <!-- Wrinkles - crow's feet right -->
  <path d="M352 255 Q362 248 367 240" fill="none" stroke="#E0C0A0" stroke-width="1.2" opacity="0.5"/>
  <path d="M352 260 Q364 258 369 255" fill="none" stroke="#E0C0A0" stroke-width="1.2" opacity="0.5"/>
  
  <!-- Nasolabial folds -->
  <path d="M218 300 Q215 320 222 345" fill="none" stroke="#E0C0A0" stroke-width="1.5" opacity="0.5"/>
  <path d="M294 300 Q297 320 290 345" fill="none" stroke="#E0C0A0" stroke-width="1.5" opacity="0.5"/>
  
  <!-- Rosy cheeks -->
  <ellipse cx="190" cy="310" rx="28" ry="20" fill="#F5A0A0" opacity="0.4"/>
  <ellipse cx="322" cy="310" rx="28" ry="20" fill="#F5A0A0" opacity="0.4"/>
  
  <!-- Eyes - whites -->
  <ellipse cx="205" cy="260" rx="28" ry="22" fill="white"/>
  <ellipse cx="307" cy="260" rx="28" ry="22" fill="white"/>
  
  <!-- Eyes - iris -->
  <circle cx="208" cy="262" r="14" fill="#5B8C5A"/>
  <circle cx="310" cy="262" r="14" fill="#5B8C5A"/>
  
  <!-- Eyes - pupils -->
  <circle cx="210" cy="264" r="7" fill="#2D2D2D"/>
  <circle cx="312" cy="264" r="7" fill="#2D2D2D"/>
  
  <!-- Eyes - highlights -->
  <circle cx="214" cy="258" r="4" fill="white"/>
  <circle cx="316" cy="258" r="4" fill="white"/>
  
  <!-- Eyelids - upper -->
  <path d="M175 252 Q205 238 235 252" fill="none" stroke="#8B6B50" stroke-width="3" stroke-linecap="round"/>
  <path d="M277 252 Q307 238 337 252" fill="none" stroke="#8B6B50" stroke-width="3" stroke-linecap="round"/>
  
  <!-- Eyelashes -->
  <path d="M175 252 Q172 246 170 242" fill="none" stroke="#8B6B50" stroke-width="2" stroke-linecap="round"/>
  <path d="M337 252 Q340 246 342 242" fill="none" stroke="#8B6B50" stroke-width="2" stroke-linecap="round"/>
  
  <!-- Eyebrows -->
  <path d="M178 232 Q205 218 235 228" fill="none" stroke="#9E9E9E" stroke-width="4" stroke-linecap="round"/>
  <path d="M277 228 Q307 218 334 232" fill="none" stroke="#9E9E9E" stroke-width="4" stroke-linecap="round"/>
  
  <!-- Glasses frames (subtle) -->
  <ellipse cx="205" cy="260" rx="35" ry="28" fill="none" stroke="#A08060" stroke-width="2" opacity="0.4"/>
  <ellipse cx="307" cy="260" rx="35" ry="28" fill="none" stroke="#A08060" stroke-width="2" opacity="0.4"/>
  <path d="M240 258 Q256 265 272 258" fill="none" stroke="#A08060" stroke-width="2" opacity="0.4"/>
  
  <!-- Nose -->
  <path d="M252 290 Q248 305 242 315 Q252 320 262 320 Q272 315 268 305 Z" fill="#E8C0A0"/>
  <path d="M248 315 Q256 320 264 315" fill="none" stroke="#D4A880" stroke-width="1.5" stroke-linecap="round"/>
  
  <!-- Mouth - RR viseme: lips rounded and forward, slightly open -->
  <ellipse cx="256" cy="355" rx="16" ry="14" fill="#3D1515"/>
  <!-- Upper lip -->
  <path d="M238 350 Q244 344 256 343 Q268 344 274 350 Q268 348 256 347 Q244 348 238 350" fill="#C46060"/>
  <!-- Lower lip -->
  <path d="M238 360 Q244 370 256 372 Q268 370 274 360 Q268 363 256 364 Q244 363 238 360" fill="#D07070"/>
  <!-- Outer lip outline -->
  <ellipse cx="256" cy="355" rx="18" ry="16" fill="none" stroke="#B05050" stroke-width="2.5"/>
  <!-- Lip pucker lines -->
  <path d="M236 355 Q233 355 231 355" fill="none" stroke="#D4A880" stroke-width="1" opacity="0.5"/>
  <path d="M276 355 Q279 355 281 355" fill="none" stroke="#D4A880" stroke-width="1" opacity="0.5"/>
  
  <!-- Hair - silver bun -->
  <!-- Back hair volume -->
  <ellipse cx="256" cy="175" rx="135" ry="80" fill="#C8C8CC"/>
  <!-- Side hair -->
  <path d="M126 220 Q130 180 160 155 Q200 125 256 120 Q312 125 352 155 Q382 180 386 220 Q380 200 350 180 Q310 155 256 150 Q202 155 162 180 Q132 200 126 220" fill="#D0D0D5"/>
  <!-- Top hair -->
  <path d="M150 210 Q160 155 200 135 Q240 118 256 118 Q272 118 312 135 Q352 155 362 210 Q350 175 310 155 Q272 138 256 138 Q240 138 202 155 Q162 175 150 210" fill="#C0C0C8"/>
  <!-- Bun -->
  <circle cx="256" cy="120" r="40" fill="#B8B8C0"/>
  <circle cx="256" cy="120" r="38" fill="#C5C5CD"/>
  <!-- Bun detail swirls -->
  <path d="M240 110 Q256 100 272 110 Q278 120 272 130 Q256 138 240 130 Q234 120 240 110" fill="none" stroke="#A8A8B0" stroke-width="2" opacity="0.6"/>
  <path d="M248 115 Q256 110 264 115 Q268 122 264 128 Q256 132 248 128 Q244 122 248 115" fill="none" stroke="#A8A8B0" stroke-width="1.5" opacity="0.5"/>
  
  <!-- Hair pin -->
  <circle cx="275" cy="108" r="4" fill="#D4AF37"/>
  <circle cx="275" cy="108" r="2" fill="#E8C845"/>
</svg>