<svg xmlns="http://www.w3.org/2000/svg" viewBox="0 0 512 512">
  <!-- Background -->
  <rect width="512" height="512" fill="#FFF5E6"/>
  
  <!-- Neck -->
  <rect x="220" y="390" width="72" height="60" fill="#F0D0B0" rx="10"/>
  
  <!-- Shoulders -->
  <ellipse cx="256" cy="470" rx="120" ry="50" fill="#7B5EA7"/>
  
  <!-- Collar/neckline -->
  <path d="M200 450 Q256 430 312 450" fill="none" stroke="#6B4E97" stroke-width="3"/>
  
  <!-- Ears -->
  <ellipse cx="130" cy="270" rx="22" ry="30" fill="#F0D0B0"/>
  <ellipse cx="130" cy="270" rx="12" ry="18" fill="#E8C0A0"/>
  <ellipse cx="382" cy="270" rx="22" ry="30" fill="#F0D0B0"/>
  <ellipse cx="382" cy="270" rx="12" ry="18" fill="#E8C0A0"/>
  
  <!-- Earrings -->
  <circle cx="130" cy="298" r="5" fill="#D4AF37"/>
  <circle cx="382" cy="298" r="5" fill="#D4AF37"/>
  
  <!-- Face shape -->
  <ellipse cx="256" cy="270" rx="130" ry="145" fill="#F5DAC0"/>
  
  <!-- Wrinkles - forehead -->
  <path d="M200 180 Q256 175 312 180" fill="none" stroke="#E0C0A0" stroke-width="1.5" opacity="0.6"/>
  <path d="M210 195 Q256 190 302 195" fill="none" stroke="#E0C0A0" stroke-width="1.5" opacity="0.6"/>
  
  <!-- Wrinkles - crow's feet left -->
  <path d="M160 255 Q150 248 145 240" fill="none" stroke="#E0C0A0" stroke-width="1.2" opacity="0.5"/>
  <path d="M160 260 Q148 258 143 255" fill="none" stroke="#E0C0A0" stroke-width="1.2" opacity="0.5"/>
  
  <!-- Wrinkles - crow's feet right -->
  <path d="M352 255 Q362 248 367 240" fill="none" stroke="#E0C0A0" stroke-width="1.2" opacity="0.5"/>
  <path d="M352 260 Q364 258 369 255" fill="none" stroke="#E0C0A0" stroke-width="1.2" opacity="0.5"/>
  
  <!-- Nasolabial folds -->
  <path d="M218 300 Q215 320 222 345" fill="none" stroke="#E0C0A0" stroke-width="1.5" opacity="0.5"/>
  <path d="M294 300 Q297 320 290 345" fill="none" stroke="#E0C0A0" stroke-width="1.5" opacity="0.5"/>
  
  <!-- Rosy cheeks -->
  <ellipse cx="190" cy="310" rx="28" ry="20" fill="#F5A0A0" opacity="0.4"/>
  <ellipse cx="322" cy="310" rx="28" ry="20" fill="#F5A0A0" opacity="0.4"/>
  
  <!-- Eyes - whites -->
  <ellipse cx="205" cy="260" rx="28" ry="22" fill="white"/>
  <ellipse cx="307" cy="260" rx="28" ry="22" fill="white"/>
  
  <!-- Eyes - iris -->
  <circle cx="208" cy="262" r="14" fill="#5B8C5A"/>
  <circle cx="310" cy="262" r="14" fill="#5B8C5A"/>
  
  <!-- Eyes - pupils -->
  <circle cx="210" cy="264" r="7" fill="#2D2D2D"/>
  <circle cx="312" cy="264" r="7" fill="#2D2D2D"/>
  
  <!-- Eyes - highlights -->
  <circle cx="214" cy="258" r="4" fill="white"/>
  <circle cx="316" cy="258" r="4" fill="white"/>
  
  <!-- Eyelids - upper -->
  <path d="M175 252 Q205 238 235 252" fill="none" stroke="#8B6B50" stroke-width="3" stroke-linecap="round"/>
  <path d="M277 252 Q307 238 337 252" fill="none" stroke="#8B6B50" stroke-width="3" stroke-linecap="round"/>
  
  <!-- Eyelashes -->
  <path d="M175 252 Q172 246 170 242" fill="none" stroke="#8B6B50" stroke-width="2" stroke-linecap="round"/>
  <path d="M337 252 Q340 246 342 242" fill="none" stroke="#8B6B50" stroke-width="2" stroke-linecap="round"/>
  
  <!-- Eyebrows -->
  <path d="M178 232 Q205 218 235 228" fill="none" stroke="#9E9E9E" stroke-width="4" stroke-linecap="round"/>
  <path d="M277 228 Q307 218 334 232" fill="none" stroke="#9E9E9E" stroke-width="4" stroke-linecap="round"/>
  
  <!-- Glasses frames (subtle) -->
  <ellipse cx="205" cy="260" rx="35" ry="28" fill="none" stroke="#A08060" stroke-width="2" opacity="0.4"/>
  <ellipse cx="307" cy="260" rx="35" ry="28" fill="none" stroke="#A08060" stroke-width="2" opacity="0.4"/>
  <path d="M240 258 Q256 265 272 258" fill="none" stroke="#A08060" stroke-width="2" opacity="0.4"/>
  
  <!-- Nose -->
  <path d="M250 290 Q256 305 262 290" fill="none" stroke="#D4A080" stroke-width="2.5" stroke-linecap="round"/>
  <path d="M245 300 Q256 308 267 300" fill="none" stroke="#D4A080" stroke-width="2" stroke-linecap="round"/>
  
  <!-- Mouth - "U" viseme: tightly rounded, small opening like a kiss -->
  <ellipse cx="256" cy="348" rx="14" ry="16" fill="#2D2D2D"/>
  <ellipse cx="256" cy="347" rx="10" ry="11" fill="#4A1520"/>
  <!-- Upper lip -->
  <path d="M240 342 Q248 335 256 334 Q264 335 272 342" fill="#D07070" stroke="#C06060" stroke-width="1.5"/>
  <!-- Lower lip -->
  <path d="M240 354 Q248 365 256 366 Q264 365 272 354" fill="#D88080" stroke="#C06060" stroke-width="1.5"/>
  <!-- Lip highlights -->
  <ellipse cx="256" cy="338" rx="6" ry="3" fill="#E09090" opacity="0.5"/>
  
  <!-- Hair - silver bun -->
  <!-- Back hair mass -->
  <ellipse cx="256" cy="180" rx="140" ry="100" fill="#C8C8D0"/>
  <!-- Hair top -->
  <path d="M126 250 Q126 130 256 120 Q386 130 386 250" fill="#D0D0D8"/>
  <!-- Hair side strands -->
  <path d="M130 250 Q135 200 160 170 Q200 130 256 125 Q312 130 352 170 Q377 200 382 250" fill="#C0C0C8"/>
  <!-- Bun -->
  <ellipse cx="256" cy="125" rx="50" ry="40" fill="#B8B8C4"/>
  <path d="M220 130 Q240 100 256 95 Q272 100 292 130" fill="none" stroke="#A8A8B4" stroke-width="2" opacity="0.6"/>
  <path d="M230 120 Q256 105 282 120" fill="none" stroke="#A8A8B4" stroke-width="1.5" opacity="0.5"/>
  <!-- Hair texture lines -->
  <path d="M160 180 Q180 160 210 155" fill="none" stroke="#A8A8B4" stroke-width="1.5" opacity="0.4"/>
  <path d="M352 180 Q332 160 302 155" fill="none" stroke="#A8A8B4" stroke-width="1.5" opacity="0.4"/>
  <path d="M145 220 Q160 190 190 170" fill="none" stroke="#A8A8B4" stroke-width="1.5" opacity="0.4"/>
  <path d="M367 220 Q352 190 322 170" fill="none" stroke="#A8A8B4" stroke-width="1.5" opacity="0.4"/>
</svg>