<svg viewBox="0 0 512 512" xmlns="http://www.w3.org/2000/svg">
  <!-- Background -->
  <rect width="512" height="512" fill="#E8F4F8"/>
  
  <!-- Neck -->
  <path d="M230 380 L230 430 Q230 445 240 445 L272 445 Q282 445 282 430 L282 380" fill="#8B6B4A"/>
  
  <!-- Shoulders -->
  <path d="M160 445 Q180 430 230 435 L282 435 Q332 430 352 445 L370 480 Q375 500 360 510 L152 510 Q137 500 142 480 Z" fill="#5B4A8A"/>
  
  <!-- Hair back -->
  <ellipse cx="256" cy="240" rx="130" ry="150" fill="#2C2020"/>
  
  <!-- Ears -->
  <ellipse cx="132" cy="270" rx="18" ry="25" fill="#8B6B4A"/>
  <ellipse cx="132" cy="270" rx="10" ry="16" fill="#7A5C3E"/>
  <ellipse cx="380" cy="270" rx="18" ry="25" fill="#8B6B4A"/>
  <ellipse cx="380" cy="270" rx="10" ry="16" fill="#7A5C3E"/>
  
  <!-- Face shape -->
  <ellipse cx="256" cy="270" rx="115" ry="130" fill="#A07850"/>
  
  <!-- Hair -->
  <path d="M140 220 Q145 140 200 110 Q240 95 270 95 Q320 95 350 120 Q380 145 380 200 Q380 180 370 165 Q365 155 355 148 Q340 138 320 135 Q280 125 250 130 Q200 138 180 165 Q160 192 155 220 Q150 200 140 220 Z" fill="#2C2020"/>
  
  <!-- Grey streaks in hair -->
  <path d="M170 170 Q175 145 195 130 Q200 128 195 135 Q180 155 175 180 Z" fill="#808080" opacity="0.7"/>
  <path d="M340 160 Q350 140 355 130 Q358 128 356 138 Q350 158 345 178 Z" fill="#808080" opacity="0.7"/>
  <path d="M155 230 Q150 200 155 185 Q157 180 158 190 Q157 210 158 240 Z" fill="#808080" opacity="0.6"/>
  <path d="M365 210 Q370 190 368 175 Q370 170 372 180 Q372 200 368 225 Z" fill="#808080" opacity="0.6"/>
  
  <!-- Hair sides falling -->
  <path d="M135 220 Q140 200 145 240 Q148 280 150 310 Q145 330 140 310 Q130 270 135 220 Z" fill="#2C2020"/>
  <path d="M377 220 Q372 200 367 240 Q364 280 362 310 Q367 330 372 310 Q382 270 377 220 Z" fill="#2C2020"/>
  
  <!-- Grey streaks on sides -->
  <path d="M142 250 Q144 270 146 300 Q143 290 141 270 Z" fill="#808080" opacity="0.6"/>
  <path d="M370 250 Q368 270 366 300 Q369 290 371 270 Z" fill="#808080" opacity="0.6"/>
  
  <!-- Eyebrows -->
  <path d="M195 220 Q215 210 240 215" stroke="#3D2B1F" stroke-width="5" fill="none" stroke-linecap="round"/>
  <path d="M275 215 Q300 210 318 220" stroke="#3D2B1F" stroke-width="5" fill="none" stroke-linecap="round"/>
  
  <!-- Eyes - whites -->
  <ellipse cx="220" cy="250" rx="22" ry="20" fill="white"/>
  <ellipse cx="295" cy="250" rx="22" ry="20" fill="white"/>
  
  <!-- Irises -->
  <ellipse cx="222" cy="252" rx="12" ry="13" fill="#4A3020"/>
  <ellipse cx="297" cy="252" rx="12" ry="13" fill="#4A3020"/>
  
  <!-- Pupils -->
  <circle cx="223" cy="252" r="5" fill="#1A1A1A"/>
  <circle cx="298" cy="252" r="5" fill="#1A1A1A"/>
  
  <!-- Eye highlights -->
  <circle cx="226" cy="247" r="3" fill="white"/>
  <circle cx="301" cy="247" r="3" fill="white"/>
  
  <!-- Eyelashes/lids -->
  <path d="M198 245 Q220 235 242 245" stroke="#3D2B1F" stroke-width="3" fill="none" stroke-linecap="round"/>
  <path d="M273 245 Q295 235 317 245" stroke="#3D2B1F" stroke-width="3" fill="none" stroke-linecap="round"/>
  
  <!-- Nose -->
  <path d="M252 280 Q248 295 244 305 Q250 310 258 310 Q264 305 260 295 Z" fill="#8A5D3A" opacity="0.6"/>
  
  <!-- Mouth - CH viseme: rounded, slightly forward, slightly open -->
  <!-- Outer lip shape - rounded oval opening -->
  <ellipse cx="256" cy="340" rx="18" ry="14" fill="#1A1A1A"/>
  <!-- Inner mouth (dark opening) -->
  <ellipse cx="256" cy="340" rx="13" ry="9" fill="#3D1515"/>
  <!-- Upper lip -->
  <path d="M238 335 Q244 328 256 327 Q268 328 274 335 Q268 332 256 331 Q244 332 238 335 Z" fill="#9E5040"/>
  <!-- Lower lip -->
  <path d="M239 346 Q248 355 256 356 Q264 355 273 346 Q265 350 256 351 Q247 350 239 346 Z" fill="#B86050"/>
  <!-- Lip outline for rounded forward shape -->
  <path d="M236 336 Q240 326 256 325 Q272 326 276 336" stroke="#7A3A30" stroke-width="2" fill="none" stroke-linecap="round"/>
  <path d="M236 344 Q240 356 256 358 Q272 356 276 344" stroke="#7A3A30" stroke-width="2" fill="none" stroke-linecap="round"/>
  
  <!-- Smile lines / cheek creases -->
  <path d="M230 330 Q226 335 228 345" stroke="#8A5D3A" stroke-width="1.5" fill="none" opacity="0.4" stroke-linecap="round"/>
  <path d="M282 330 Q286 335 284 345" stroke="#8A5D3A" stroke-width="1.5" fill="none" opacity="0.4" stroke-linecap="round"/>
</svg>