<svg xmlns="http://www.w3.org/2000/svg" viewBox="0 0 512 512">
  <!-- Background -->
  <rect width="512" height="512" fill="#FFF5E6" rx="20"/>
  
  <!-- Neck -->
  <rect x="220" y="360" width="72" height="60" fill="#F5C5A3" rx="5"/>
  
  <!-- Shoulders -->
  <path d="M120 440 Q150 390 220 400 L292 400 Q362 390 392 440 L400 512 L112 512 Z" fill="#5B8EC2" rx="10"/>
  
  <!-- Shirt collar -->
  <path d="M220 400 L240 430 L256 415 L272 430 L292 400" fill="#4A7DB1" stroke="none"/>
  
  <!-- Ears -->
  <!-- Left ear -->
  <ellipse cx="128" cy="260" rx="22" ry="32" fill="#F5C5A3"/>
  <ellipse cx="132" cy="260" rx="12" ry="20" fill="#E8A882"/>
  
  <!-- Right ear -->
  <ellipse cx="384" cy="260" rx="22" ry="32" fill="#F5C5A3"/>
  <ellipse cx="380" cy="260" rx="12" ry="20" fill="#E8A882"/>
  
  <!-- Head/Face -->
  <ellipse cx="256" cy="250" rx="130" ry="150" fill="#FACDA0"/>
  
  <!-- Hair base (dark brown/black) -->
  <path d="M126 220 Q126 100 256 90 Q386 100 386 220 L386 180 Q386 95 256 80 Q126 95 126 180 Z" fill="#3A2A1A"/>
  
  <!-- Hair top volume -->
  <path d="M120 200 Q120 85 256 72 Q392 85 392 200 Q390 150 360 120 Q320 90 256 82 Q192 90 152 120 Q125 150 120 200 Z" fill="#4A3828"/>
  
  <!-- Hair side left -->
  <path d="M126 180 Q126 130 160 110 Q140 140 135 180 Q132 200 130 220 L126 220 Z" fill="#3A2A1A"/>
  
  <!-- Hair side right -->
  <path d="M386 180 Q386 130 352 110 Q372 140 377 180 Q380 200 382 220 L386 220 Z" fill="#3A2A1A"/>
  
  <!-- Hair front fringe -->
  <path d="M150 170 Q160 120 210 105 Q240 95 256 95 Q272 95 302 105 Q352 120 362 170 Q350 135 310 118 Q270 105 256 105 Q242 105 202 118 Q162 135 150 170 Z" fill="#2E1F10"/>
  
  <!-- Eyebrows -->
  <!-- Left eyebrow -->
  <path d="M175 195 Q195 182 225 188" stroke="#3A2A1A" stroke-width="5" fill="none" stroke-linecap="round"/>
  <!-- Right eyebrow -->
  <path d="M287 188 Q317 182 337 195" stroke="#3A2A1A" stroke-width="5" fill="none" stroke-linecap="round"/>
  
  <!-- Eyes -->
  <!-- Left eye white -->
  <ellipse cx="200" cy="235" rx="30" ry="24" fill="white"/>
  <!-- Left iris -->
  <ellipse cx="203" cy="237" rx="16" ry="18" fill="#5A8E4A"/>
  <!-- Left pupil -->
  <ellipse cx="205" cy="238" rx="8" ry="9" fill="#1A1A1A"/>
  <!-- Left eye highlight -->
  <ellipse cx="210" cy="230" rx="5" ry="4" fill="white" opacity="0.9"/>
  <!-- Left eye outline -->
  <ellipse cx="200" cy="235" rx="30" ry="24" fill="none" stroke="#2E1F10" stroke-width="2.5"/>
  <!-- Left eyelid line -->
  <path d="M170 230 Q200 215 230 230" stroke="#2E1F10" stroke-width="2" fill="none"/>
  
  <!-- Right eye white -->
  <ellipse cx="312" cy="235" rx="30" ry="24" fill="white"/>
  <!-- Right iris -->
  <ellipse cx="309" cy="237" rx="16" ry="18" fill="#5A8E4A"/>
  <!-- Right pupil -->
  <ellipse cx="307" cy="238" rx="8" ry="9" fill="#1A1A1A"/>
  <!-- Right eye highlight -->
  <ellipse cx="314" cy="230" rx="5" ry="4" fill="white" opacity="0.9"/>
  <!-- Right eye outline -->
  <ellipse cx="312" cy="235" rx="30" ry="24" fill="none" stroke="#2E1F10" stroke-width="2.5"/>
  <!-- Right eyelid line -->
  <path d="M282 230 Q312 215 342 230" stroke="#2E1F10" stroke-width="2" fill="none"/>
  
  <!-- Nose -->
  <path d="M248 280 Q256 295 264 280" stroke="#D4956B" stroke-width="2.5" fill="none" stroke-linecap="round"/>
  
  <!-- Cheek blush -->
  <ellipse cx="175" cy="300" rx="22" ry="12" fill="#F0A08A" opacity="0.35"/>
  <ellipse cx="337" cy="300" rx="22" ry="12" fill="#F0A08A" opacity="0.35"/>
  
  <!-- Mouth - "aa" viseme: wide open, jaw dropped, lips relaxed and wide -->
  <!-- Outer mouth shape (lips) -->
  <path d="M215 325 Q225 318 240 316 Q256 314 272 316 Q287 318 297 325 Q302 335 300 348 Q295 368 280 378 Q268 386 256 388 Q244 386 232 378 Q217 368 212 348 Q210 335 215 325 Z" fill="#1A1A1A" stroke="#2E1F10" stroke-width="2"/>
  
  <!-- Upper lip -->
  <path d="M215 325 Q225 318 240 316 Q256 314 272 316 Q287 318 297 325 Q280 332 256 333 Q232 332 215 325 Z" fill="#D4706A"/>
  
  <!-- Lower lip -->
  <path d="M212 348 Q217 368 232 378 Q244 386 256 388 Q268 386 280 378 Q295 368 300 348 Q295 358 280 363 Q268 367 256 368 Q244 367 232 363 Q217 358 212 348 Z" fill="#C75B5B"/>
  
  <!-- Tongue visible inside mouth -->
  <ellipse cx="256" cy="368" rx="25" ry="14" fill="#D46B6B"/>
  
  <!-- Teeth (upper row) -->
  <path d="M225 325 Q230 320 240 317 Q256 315 272 317 Q282 320 287 325 L287 338 Q272 340 256 341 Q240 340 225 338 Z" fill="white" opacity="0.95"/>
  <!-- Teeth line -->
  <line x1="256" y1="317" x2="256" y2="340" stroke="#E8E8E8" stroke-width="1" opacity="0.5"/>
</svg>