<svg xmlns="http://www.w3.org/2000/svg" viewBox="0 0 512 512">
  <!-- Background -->
  <rect width="512" height="512" fill="#FFF5E6" rx="20"/>
  
  <!-- Neck -->
  <rect x="220" y="360" width="72" height="60" fill="#F5C5A3" rx="5"/>
  
  <!-- Shoulders -->
  <path d="M120 440 Q150 390 220 400 L292 400 Q362 390 392 440 L400 512 L112 512 Z" fill="#5B8EC2" rx="10"/>
  
  <!-- Shirt collar -->
  <path d="M220 400 L240 430 L256 415 L272 430 L292 400" fill="#4A7DB1" stroke="none"/>
  
  <!-- Ears -->
  <!-- Left ear -->
  <ellipse cx="128" cy="260" rx="22" ry="32" fill="#F5C5A3"/>
  <ellipse cx="132" cy="260" rx="12" ry="20" fill="#E8A882"/>
  
  <!-- Right ear -->
  <ellipse cx="384" cy="260" rx="22" ry="32" fill="#F5C5A3"/>
  <ellipse cx="380" cy="260" rx="12" ry="20" fill="#E8A882"/>
  
  <!-- Head/Face -->
  <ellipse cx="256" cy="250" rx="130" ry="150" fill="#FACDA0"/>
  
  <!-- Hair base (dark brown/black) -->
  <path d="M126 220 Q126 100 256 90 Q386 100 386 220 L386 180 Q386 95 256 80 Q126 95 126 180 Z" fill="#3A2A1A"/>
  
  <!-- Hair top volume -->
  <path d="M120 200 Q120 85 256 72 Q392 85 392 200 Q390 150 360 120 Q320 90 256 82 Q192 90 152 120 Q125 150 120 200 Z" fill="#4A3828"/>
  
  <!-- Hair side left -->
  <path d="M126 180 Q126 130 160 110 Q140 140 135 180 Q132 200 130 220 L126 220 Z" fill="#3A2A1A"/>
  
  <!-- Hair side right -->
  <path d="M386 180 Q386 130 352 110 Q372 140 377 180 Q380 200 382 220 L386 220 Z" fill="#3A2A1A"/>
  
  <!-- Hair front fringe -->
  <path d="M150 170 Q160 120 210 105 Q240 95 256 95 Q272 95 302 105 Q352 120 362 170 Q350 135 310 118 Q270 105 256 105 Q242 105 202 118 Q162 135 150 170 Z" fill="#2E1F10"/>
  
  <!-- Eyebrows -->
  <!-- Left eyebrow -->
  <path d="M175 195 Q195 182 225 188" stroke="#3A2A1A" stroke-width="5" fill="none" stroke-linecap="round"/>
  <!-- Right eyebrow -->
  <path d="M287 188 Q317 182 337 195" stroke="#3A2A1A" stroke-width="5" fill="none" stroke-linecap="round"/>
  
  <!-- Eyes -->
  <!-- Left eye white -->
  <ellipse cx="200" cy="235" rx="30" ry="24" fill="white"/>
  <!-- Left iris -->
  <ellipse cx="203" cy="237" rx="16" ry="18" fill="#5A8E4A"/>
  <!-- Left pupil -->
  <ellipse cx="205" cy="238" rx="8" ry="9" fill="#1A1A1A"/>
  <!-- Left eye highlight -->
  <ellipse cx="210" cy="230" rx="5" ry="4" fill="white" opacity="0.9"/>
  <!-- Left eye outline -->
  <ellipse cx="200" cy="235" rx="30" ry="24" fill="none" stroke="#2E1F10" stroke-width="2.5"/>
  <!-- Left eyelid line -->
  <path d="M170 230 Q200 215 230 230" stroke="#2E1F10" stroke-width="2" fill="none"/>
  
  <!-- Right eye white -->
  <ellipse cx="312" cy="235" rx="30" ry="24" fill="white"/>
  <!-- Right iris -->
  <ellipse cx="309" cy="237" rx="16" ry="18" fill="#5A8E4A"/>
  <!-- Right pupil -->
  <ellipse cx="307" cy="238" rx="8" ry="9" fill="#1A1A1A"/>
  <!-- Right eye highlight -->
  <ellipse cx="314" cy="230" rx="5" ry="4" fill="white" opacity="0.9"/>
  <!-- Right eye outline -->
  <ellipse cx="312" cy="235" rx="30" ry="24" fill="none" stroke="#2E1F10" stroke-width="2.5"/>
  <!-- Right eyelid line -->
  <path d="M282 230 Q312 215 342 230" stroke="#2E1F10" stroke-width="2" fill="none"/>
  
  <!-- Nose -->
  <path d="M250 275 Q256 290 262 275" stroke="#D4956B" stroke-width="2.5" fill="none" stroke-linecap="round"/>
  <path d="M244 282 Q256 295 268 282" stroke="#D4956B" stroke-width="2" fill="none" stroke-linecap="round"/>
  
  <!-- Mouth - DD viseme: slightly open, tongue visible behind upper teeth -->
  <!-- Mouth opening (dark interior) -->
  <path d="M222 330 Q232 322 256 320 Q280 322 290 330 Q280 348 256 350 Q232 348 222 330 Z" fill="#2E1010"/>
  
  <!-- Upper lip -->
  <path d="M218 328 Q230 318 256 316 Q282 318 294 328 Q282 322 256 320 Q230 322 218 328 Z" fill="#E07A6A" stroke="#C4685A" stroke-width="1"/>
  
  <!-- Upper teeth -->
  <path d="M230 328 Q240 324 256 323 Q272 324 282 328 L282 334 Q272 330 256 329 Q240 330 230 334 Z" fill="#F5F0EB"/>
  <!-- Teeth line separations -->
  <line x1="248" y1="324" x2="248" y2="333" stroke="#E0D8D0" stroke-width="0.8"/>
  <line x1="256" y1="323" x2="256" y2="332" stroke="#E0D8D0" stroke-width="0.8"/>
  <line x1="264" y1="324" x2="264" y2="333" stroke="#E0D8D0" stroke-width="0.8"/>
  
  <!-- Tongue touching behind upper teeth -->
  <path d="M236 336 Q246 332 256 331 Q266 332 276 336 Q270 346 256 348 Q242 346 236 336 Z" fill="#D4616A"/>
  <!-- Tongue highlight -->
  <path d="M246 337 Q256 334 266 337 Q262 342 256 343 Q250 342 246 337 Z" fill="#E07580" opacity="0.6"/>
  
  <!-- Lower lip -->
  <path d="M222 330 Q232 348 256 352 Q280 348 290 330 Q282 355 256 358 Q230 355 222 330 Z" fill="#E07A6A" stroke="#C4685A" stroke-width="1"/>
  
  <!-- Mouth outline -->
  <path d="M218 328 Q230 318 256 316 Q282 318 294 328 Q282 355 256 358 Q230 355 218 328 Z" fill="none" stroke="#2E1F10" stroke-width="2.5"/>
  
  <!-- Cheek blush -->
  <ellipse cx="170" cy="295" rx="22" ry="12" fill="#F0A090" opacity="0.35"/>
  <ellipse cx="342" cy="295" rx="22" ry="12" fill="#F0A090" opacity="0.35"/>
</svg>