<svg xmlns="http://www.w3.org/2000/svg" viewBox="0 0 512 512">
  <!-- Background -->
  <rect width="512" height="512" fill="#E8F4F8" rx="20"/>
  
  <!-- Shoulders -->
  <ellipse cx="256" cy="510" rx="160" ry="80" fill="#4A90D9"/>
  
  <!-- Neck -->
  <rect x="224" y="380" width="64" height="60" rx="10" fill="#F5C4A1"/>
  
  <!-- Neck shadow -->
  <rect x="224" y="380" width="64" height="20" rx="5" fill="#E8AD8C" opacity="0.5"/>
  
  <!-- Hair back (behind head) -->
  <ellipse cx="256" cy="175" rx="140" ry="145" fill="#6B4226"/>
  
  <!-- Face -->
  <ellipse cx="256" cy="250" rx="120" ry="140" fill="#F5C4A1"/>
  
  <!-- Face outline -->
  <ellipse cx="256" cy="250" rx="120" ry="140" fill="none" stroke="#3D2B1F" stroke-width="3"/>
  
  <!-- Ears -->
  <ellipse cx="132" cy="260" rx="22" ry="30" fill="#F5C4A1" stroke="#3D2B1F" stroke-width="3"/>
  <ellipse cx="132" cy="262" rx="12" ry="18" fill="#E8AD8C"/>
  <ellipse cx="380" cy="260" rx="22" ry="30" fill="#F5C4A1" stroke="#3D2B1F" stroke-width="3"/>
  <ellipse cx="380" cy="262" rx="12" ry="18" fill="#E8AD8C"/>
  
  <!-- Hair top -->
  <path d="M136 210 Q136 100 256 90 Q376 100 376 210 Q370 160 310 140 Q280 130 256 135 Q232 130 202 140 Q142 160 136 210 Z" fill="#6B4226" stroke="#3D2B1F" stroke-width="3"/>
  
  <!-- Hair bangs -->
  <path d="M150 200 Q160 140 200 125 Q230 115 256 120 Q282 115 312 125 Q352 140 362 200 Q350 170 310 155 Q280 145 256 148 Q232 145 202 155 Q162 170 150 200 Z" fill="#7D5233"/>
  
  <!-- Hair side left -->
  <path d="M136 210 Q130 240 134 270 Q138 240 145 220 Z" fill="#6B4226"/>
  
  <!-- Hair side right -->
  <path d="M376 210 Q382 240 378 270 Q374 240 367 220 Z" fill="#6B4226"/>
  
  <!-- Eyebrows -->
  <path d="M185 205 Q205 190 230 198" stroke="#3D2B1F" stroke-width="5" stroke-linecap="round" fill="none"/>
  <path d="M327 205 Q307 190 282 198" stroke="#3D2B1F" stroke-width="5" stroke-linecap="round" fill="none"/>
  
  <!-- Eye whites - left -->
  <ellipse cx="210" cy="240" rx="30" ry="28" fill="white" stroke="#3D2B1F" stroke-width="2.5"/>
  
  <!-- Eye whites - right -->
  <ellipse cx="302" cy="240" rx="30" ry="28" fill="white" stroke="#3D2B1F" stroke-width="2.5"/>
  
  <!-- Iris - left -->
  <ellipse cx="214" cy="243" rx="18" ry="19" fill="#5B8C5A"/>
  
  <!-- Iris - right -->
  <ellipse cx="306" cy="243" rx="18" ry="19" fill="#5B8C5A"/>
  
  <!-- Pupil - left -->
  <ellipse cx="216" cy="245" rx="9" ry="10" fill="#1A1A2E"/>
  
  <!-- Pupil - right -->
  <ellipse cx="308" cy="245" rx="9" ry="10" fill="#1A1A2E"/>
  
  <!-- Eye shine - left -->
  <ellipse cx="222" cy="237" rx="5" ry="5" fill="white" opacity="0.9"/>
  
  <!-- Eye shine - right -->
  <ellipse cx="314" cy="237" rx="5" ry="5" fill="white" opacity="0.9"/>
  
  <!-- Nose -->
  <path d="M250 285 Q256 298 262 285" stroke="#D4956B" stroke-width="3" stroke-linecap="round" fill="none"/>
  
  <!-- Cheek blush left -->
  <ellipse cx="175" cy="300" rx="22" ry="14" fill="#F4A0A0" opacity="0.35"/>
  
  <!-- Cheek blush right -->
  <ellipse cx="337" cy="300" rx="22" ry="14" fill="#F4A0A0" opacity="0.35"/>
  
  <!-- FF Mouth: Upper teeth resting on lower lip -->
  <!-- Lower lip (visible, slightly tucked under teeth) -->
  <path d="M226 332 Q232 340 244 344 Q256 347 268 344 Q280 340 286 332 Q280 345 268 350 Q256 353 244 350 Q232 345 226 332 Z" fill="#D4756B" stroke="#3D2B1F" stroke-width="2"/>
  
  <!-- Mouth opening / gap between teeth and lower lip -->
  <path d="M226 332 Q240 328 256 327 Q272 328 286 332 Q280 338 268 342 Q256 344 244 342 Q232 338 226 332 Z" fill="#4A1A1A"/>
  
  <!-- Upper teeth row resting on lower lip -->
  <path d="M226 332 Q240 328 256 327 Q272 328 286 332 L286 322 Q272 318 256 317 Q240 318 226 322 Z" fill="white" stroke="#3D2B1F" stroke-width="2"/>
  
  <!-- Upper lip line -->
  <path d="M222 322 Q234 316 248 314 Q256 313 264 314 Q278 316 290 322" fill="none" stroke="#3D2B1F" stroke-width="2.5" stroke-linecap="round"/>
  
  <!-- Individual tooth separations -->
  <line x1="244" y1="318" x2="244" y2="332" stroke="#D0D0D0" stroke-width="1" opacity="0.5"/>
  <line x1="256" y1="317" x2="256" y2="330" stroke="#D0D0D0" stroke-width="1" opacity="0.5"/>
  <line x1="268" y1="318" x2="268" y2="332" stroke="#D0D0D0" stroke-width="1" opacity="0.5"/>
  
  <!-- Slight skin-colored upper lip area -->
  <path d="M222 322 Q234 316 248 314 Q256 313 264 314 Q278 316 290 322 Q278 318 264 316 Q256 315 248 316 Q234 318 222 322 Z" fill="#E8AD8C" opacity="0.6"/>
</svg>