<svg xmlns="http://www.w3.org/2000/svg" viewBox="0 0 512 512">
  <!-- Background -->
  <rect width="512" height="512" fill="#E8F0F2"/>
  
  <!-- Neck -->
  <rect x="216" y="380" width="80" height="60" fill="#C4926E" rx="5"/>
  
  <!-- Shoulders -->
  <ellipse cx="256" cy="460" rx="130" ry="50" fill="#4A7C8C"/>
  
  <!-- Collar -->
  <path d="M200 435 L256 410 L312 435" fill="none" stroke="#3A6070" stroke-width="3"/>
  
  <!-- Ears -->
  <ellipse cx="120" cy="270" rx="25" ry="35" fill="#C4926E"/>
  <ellipse cx="120" cy="270" rx="15" ry="22" fill="#B07D5A"/>
  <ellipse cx="392" cy="270" rx="25" ry="35" fill="#C4926E"/>
  <ellipse cx="392" cy="270" rx="15" ry="22" fill="#B07D5A"/>
  
  <!-- Head shape -->
  <ellipse cx="256" cy="250" rx="135" ry="155" fill="#D4A574"/>
  
  <!-- Weathered skin texture - subtle wrinkle lines -->
  <path d="M180 200 Q190 195 200 200" fill="none" stroke="#BF9060" stroke-width="1.5" opacity="0.6"/>
  <path d="M312 200 Q322 195 332 200" fill="none" stroke="#BF9060" stroke-width="1.5" opacity="0.6"/>
  
  <!-- Forehead wrinkles -->
  <path d="M200 160 Q256 155 312 160" fill="none" stroke="#BF9060" stroke-width="1.5" opacity="0.5"/>
  <path d="M210 175 Q256 170 302 175" fill="none" stroke="#BF9060" stroke-width="1.5" opacity="0.4"/>
  
  <!-- White hair -->
  <path d="M121 220 Q125 130 180 95 Q220 70 256 68 Q292 70 332 95 Q387 130 391 220 Q380 160 340 130 Q300 100 256 98 Q212 100 172 130 Q132 160 121 220 Z" fill="#F0F0F0"/>
  <path d="M121 220 Q115 180 130 150 Q120 190 125 230 Q128 250 130 240" fill="#E0E0E0"/>
  <path d="M391 220 Q397 180 382 150 Q392 190 387 230 Q384 250 382 240" fill="#E0E0E0"/>
  <!-- Side hair tufts -->
  <path d="M125 230 Q110 210 115 190 Q118 210 130 225 Z" fill="#F0F0F0"/>
  <path d="M387 230 Q402 210 397 190 Q394 210 382 225 Z" fill="#F0F0F0"/>
  
  <!-- Eye sockets (deep-set effect) -->
  <ellipse cx="200" cy="245" rx="35" ry="28" fill="#BE8A5E"/>
  <ellipse cx="312" cy="245" rx="35" ry="28" fill="#BE8A5E"/>
  
  <!-- Eyes - whites -->
  <ellipse cx="200" cy="248" rx="26" ry="20" fill="white"/>
  <ellipse cx="312" cy="248" rx="26" ry="20" fill="white"/>
  
  <!-- Irises -->
  <ellipse cx="203" cy="250" rx="13" ry="14" fill="#5B8CAE"/>
  <ellipse cx="315" cy="250" rx="13" ry="14" fill="#5B8CAE"/>
  
  <!-- Pupils -->
  <circle cx="205" cy="251" r="6" fill="#1A2A3A"/>
  <circle cx="317" cy="251" r="6" fill="#1A2A3A"/>
  
  <!-- Eye highlights -->
  <circle cx="208" cy="245" r="3" fill="white" opacity="0.8"/>
  <circle cx="320" cy="245" r="3" fill="white" opacity="0.8"/>
  
  <!-- Crow's feet wrinkles -->
  <path d="M235 245 Q240 240 243 235" fill="none" stroke="#BF9060" stroke-width="1.2" opacity="0.5"/>
  <path d="M235 250 Q242 250 245 248" fill="none" stroke="#BF9060" stroke-width="1.2" opacity="0.5"/>
  <path d="M277 245 Q272 240 269 235" fill="none" stroke="#BF9060" stroke-width="1.2" opacity="0.5"/>
  <path d="M277 250 Q270 250 267 248" fill="none" stroke="#BF9060" stroke-width="1.2" opacity="0.5"/>
  
  <!-- Eyebrows -->
  <path d="M170 218 Q185 208 220 212 Q230 213 232 215" fill="none" stroke="#A0A0A0" stroke-width="4" stroke-linecap="round"/>
  <path d="M342 218 Q327 208 292 212 Q282 213 280 215" fill="none" stroke="#A0A0A0" stroke-width="4" stroke-linecap="round"/>
  
  <!-- Nose -->
  <path d="M250 270 Q245 290 240 310 Q245 318 256 320 Q267 318 272 310 Q267 290 262 270" fill="none" stroke="#BF9060" stroke-width="2.5" stroke-linecap="round"/>
  <ellipse cx="244" cy="315" rx="8" ry="5" fill="none" stroke="#BF9060" stroke-width="1.5" opacity="0.6"/>
  <ellipse cx="268" cy="315" rx="8" ry="5" fill="none" stroke="#BF9060" stroke-width="1.5" opacity="0.6"/>
  
  <!-- Nasolabial folds -->
  <path d="M232 310 Q225 330 222 350" fill="none" stroke="#BF9060" stroke-width="1.5" opacity="0.5"/>
  <path d="M280 310 Q287 330 290 350" fill="none" stroke="#BF9060" stroke-width="1.5" opacity="0.5"/>
  
  <!-- Mouth - "E" viseme: half-open, wide spread lips -->
  <!-- Outer lip shape -->
  <path d="M215 350 Q225 345 256 344 Q287 345 297 350 Q300 358 297 368 Q287 375 256 376 Q225 375 215 368 Q212 358 215 350 Z" fill="#2A1A1A"/>
  <!-- Upper lip -->
  <path d="M218 352 Q235 347 256 346 Q277 347 294 352 Q277 355 256 356 Q235 355 218 352 Z" fill="#C4706E"/>
  <!-- Lower lip -->
  <path d="M220 366 Q235 373 256 374 Q277 373 292 366 Q277 362 256 361 Q235 362 220 366 Z" fill="#D4807E"/>
  <!-- Teeth hint -->
  <path d="M228 352 Q240 355 256 356 Q272 355 284 352 L284 358 Q272 360 256 360 Q240 360 228 358 Z" fill="#F5F5F0"/>
  <!-- Tongue hint -->
  <ellipse cx="256" cy="367" rx="18" ry="6" fill="#C0505A" opacity="0.7"/>
  
  <!-- Smile lines around mouth -->
  <path d="M210 342 Q208 350 210 360" fill="none" stroke="#BF9060" stroke-width="1.2" opacity="0.4"/>
  <path d="M302 342 Q304 350 302 360" fill="none" stroke="#BF9060" stroke-width="1.2" opacity="0.4"/>
  
  <!-- Chin -->
  <path d="M235 390 Q256 400 277 390" fill="none" stroke="#BF9060" stroke-width="1.5" opacity="0.4"/>
</svg>