<svg xmlns="http://www.w3.org/2000/svg" viewBox="0 0 512 512">
  <!-- Background -->
  <rect width="512" height="512" fill="#E8F0F2"/>
  
  <!-- Neck -->
  <rect x="216" y="380" width="80" height="60" fill="#C4926E" rx="5"/>
  
  <!-- Shoulders -->
  <ellipse cx="256" cy="460" rx="130" ry="50" fill="#4A7C8C"/>
  
  <!-- Collar -->
  <path d="M200 435 L256 410 L312 435" fill="none" stroke="#3A6070" stroke-width="3"/>
  
  <!-- Ears -->
  <ellipse cx="120" cy="270" rx="25" ry="35" fill="#C4926E"/>
  <ellipse cx="120" cy="270" rx="15" ry="22" fill="#B07D5A"/>
  <ellipse cx="392" cy="270" rx="25" ry="35" fill="#C4926E"/>
  <ellipse cx="392" cy="270" rx="15" ry="22" fill="#B07D5A"/>
  
  <!-- Head shape -->
  <ellipse cx="256" cy="250" rx="135" ry="155" fill="#D4A574"/>
  
  <!-- Weathered skin texture - subtle wrinkle lines -->
  <path d="M180 200 Q190 195 200 200" fill="none" stroke="#BF9060" stroke-width="1.5" opacity="0.6"/>
  <path d="M312 200 Q322 195 332 200" fill="none" stroke="#BF9060" stroke-width="1.5" opacity="0.6"/>
  
  <!-- Forehead wrinkles -->
  <path d="M200 160 Q256 155 312 160" fill="none" stroke="#BF9060" stroke-width="1.5" opacity="0.5"/>
  <path d="M210 175 Q256 170 302 175" fill="none" stroke="#BF9060" stroke-width="1.5" opacity="0.4"/>
  
  <!-- White hair -->
  <path d="M121 220 Q125 130 180 95 Q220 70 256 68 Q292 70 332 95 Q387 130 391 220 Q380 160 340 130 Q300 100 256 98 Q212 100 172 130 Q132 160 121 220 Z" fill="#F0F0F0"/>
  <path d="M121 220 Q115 180 130 150 Q120 190 125 230 Q128 250 130 240" fill="#E0E0E0"/>
  <path d="M391 220 Q397 180 382 150 Q392 190 387 230 Q384 250 382 240" fill="#E0E0E0"/>
  <!-- Side hair tufts -->
  <path d="M125 230 Q110 210 115 190 Q118 210 130 225 Z" fill="#F0F0F0"/>
  <path d="M387 230 Q402 210 397 190 Q394 210 382 225 Z" fill="#F0F0F0"/>
  
  <!-- Eye sockets (deep-set effect) -->
  <ellipse cx="200" cy="245" rx="35" ry="28" fill="#BE8A5E"/>
  <ellipse cx="312" cy="245" rx="35" ry="28" fill="#BE8A5E"/>
  
  <!-- Eyes - whites -->
  <ellipse cx="200" cy="248" rx="26" ry="20" fill="white"/>
  <ellipse cx="312" cy="248" rx="26" ry="20" fill="white"/>
  
  <!-- Irises -->
  <ellipse cx="203" cy="250" rx="13" ry="14" fill="#5B8CAE"/>
  <ellipse cx="315" cy="250" rx="13" ry="14" fill="#5B8CAE"/>
  
  <!-- Pupils -->
  <circle cx="205" cy="251" r="6" fill="#1A2A3A"/>
  <circle cx="317" cy="251" r="6" fill="#1A2A3A"/>
  
  <!-- Eye highlights -->
  <circle cx="208" cy="245" r="3" fill="white" opacity="0.8"/>
  <circle cx="320" cy="245" r="3" fill="white" opacity="0.8"/>
  
  <!-- Crow's feet wrinkles -->
  <path d="M235 245 Q240 240 243 235" fill="none" stroke="#BF9060" stroke-width="1.2" opacity="0.5"/>
  <path d="M235 250 Q242 250 245 248" fill="none" stroke="#BF9060" stroke-width="1.2" opacity="0.5"/>
  <path d="M277 245 Q272 240 269 235" fill="none" stroke="#BF9060" stroke-width="1.2" opacity="0.5"/>
  <path d="M277 250 Q270 250 267 248" fill="none" stroke="#BF9060" stroke-width="1.2" opacity="0.5"/>
  
  <!-- Eyebrows -->
  <path d="M170 215 Q185 205 215 210 Q225 212 230 215" fill="none" stroke="#A0A0A0" stroke-width="4" stroke-linecap="round"/>
  <path d="M282 215 Q290 212 300 210 Q325 205 342 215" fill="none" stroke="#A0A0A0" stroke-width="4" stroke-linecap="round"/>
  
  <!-- Nose -->
  <path d="M250 270 Q245 290 238 310 Q245 316 256 318 Q267 316 274 310 Q267 290 262 270" fill="#C4926E"/>
  <ellipse cx="244" cy="312" rx="8" ry="5" fill="#BE8A5E"/>
  <ellipse cx="268" cy="312" rx="8" ry="5" fill="#BE8A5E"/>
  
  <!-- Smile lines (nasolabial folds) -->
  <path d="M225 300 Q218 320 220 345" fill="none" stroke="#BF9060" stroke-width="2" opacity="0.5"/>
  <path d="M287 300 Q294 320 292 345" fill="none" stroke="#BF9060" stroke-width="2" opacity="0.5"/>
  
  <!-- Mouth - TH viseme: slightly parted lips with tongue tip visible -->
  <!-- Upper lip -->
  <path d="M224 345 Q234 340 244 342 Q256 338 268 342 Q278 340 288 345 Q278 348 268 347 Q256 349 244 347 Q234 348 224 345 Z" fill="#B86B5A"/>
  
  <!-- Mouth opening (dark interior) -->
  <ellipse cx="256" cy="352" rx="28" ry="10" fill="#3A1515"/>
  
  <!-- Upper teeth -->
  <path d="M234 346 L234 354 L244 354 L244 346 Z" fill="#F5F5F0"/>
  <path d="M244 346 L244 354 L254 354 L254 346 Z" fill="#F5F5F0"/>
  <path d="M254 346 L254 354 L264 354 L264 346 Z" fill="#F5F5F0"/>
  <path d="M264 346 L264 354 L274 354 L274 346 Z" fill="#F5F5F0"/>
  <!-- Teeth separator lines -->
  <line x1="244" y1="346" x2="244" y2="354" stroke="#DDD" stroke-width="0.5"/>
  <line x1="254" y1="346" x2="254" y2="354" stroke="#DDD" stroke-width="0.5"/>
  <line x1="264" y1="346" x2="264" y2="354" stroke="#DDD" stroke-width="0.5"/>
  
  <!-- Lower teeth (partially visible) -->
  <path d="M238 358 L238 362 L278 362 L278 358 Z" fill="#EEECE8" rx="1"/>
  
  <!-- Tongue tip visible between teeth - key TH feature -->
  <ellipse cx="256" cy="356" rx="14" ry="5" fill="#D4636A"/>
  <ellipse cx="256" cy="354" rx="10" ry="3" fill="#E07078"/>
  
  <!-- Lower lip -->
  <path d="M224 360 Q234 366 244 367 Q256 368 268 367 Q278 366 288 360 Q278 370 268 372 Q256 374 244 372 Q234 370 224 360 Z" fill="#C07060"/>
  
  <!-- Chin -->
  <path d="M230 385 Q256 395 282 385" fill="none" stroke="#BF9060" stroke-width="1.5" opacity="0.4"/>
</svg>